<?xml version="1.0" standalone="no"?>
<!DOCTYPE svg PUBLIC "-//W3C//DTD SVG 1.1//EN" "http://www.w3.org/Graphics/SVG/1.1/DTD/svg11.dtd" >
<svg xmlns="http://www.w3.org/2000/svg">
<metadata>
This is a custom SVG webfont generated by Font Squirrel.
Copyright   : Generated by Fontographer 40
</metadata>
<defs>
<font id="BanksiaBlack" horiz-adv-x="1685" >
<font-face units-per-em="2048" ascent="1638" descent="-410" />
<missing-glyph horiz-adv-x="634" />
<glyph unicode=" "  horiz-adv-x="634" />
<glyph unicode="&#x09;" horiz-adv-x="634" />
<glyph unicode="&#xa0;" horiz-adv-x="634" />
<glyph unicode="!" horiz-adv-x="563" d="M92 1419l379 19l-22 -717l6 -328h-346l8 338zM121 125v141l151 25h172l21 -258l-154 -39l-161 8z" />
<glyph unicode="&#x22;" horiz-adv-x="802" d="M94 1442l312 -6l-19 -201l-33 -197l-209 27l-36 184zM442 1442l312 -6l-19 -201l-33 -197l-208 27l-37 184z" />
<glyph unicode="#" horiz-adv-x="1415" d="M102 211l9 285h241l2 92h-252l9 284h231l-10 299l325 5l9 -302h116v293l326 -4l-10 -286h215l-4 -289l-211 2v-90h215l-4 -289l-222 2l-4 -231l-297 8l-2 221h-125v-225l-299 8l-4 217h-254zM659 588l3 -92l122 -2v94h-125z" />
<glyph unicode="$" horiz-adv-x="1302" d="M102 387q168 -14 297 -14q63 0 117 4l-6 182q-387 109 -387 334q0 121 137 227q111 86 250 127l-2 146l305 -4l-2 -95q80 6 190 9l115 -306q-164 12 -276 13h-31l2 -213q389 -113 389 -285q0 -82 -85 -181.5t-193 -148.5q-55 -27 -109 -41v-159l-301 8l2 108 q-37 -2 -76 -2q-119 0 -258 15zM455 911q0 -33 94 -71l2 153q-96 -47 -96 -82zM772 369l4 2q104 53 105 104q0 27 -109 51v-157z" />
<glyph unicode="%" horiz-adv-x="2191" d="M102 940q0 182 134 299q53 45 159 80q100 33 176 33h9q61 -2 140 -35t128 -80q115 -109 115 -264q0 -141 -99 -252q-59 -66 -161.5 -109t-186.5 -43q-170 0 -295 119q-119 113 -119 252zM373 86q29 98 520 610l649 678q33 -12 146 -76q84 -47 153 -63 q-152 -170 -657 -698q-561 -584 -584 -584q-10 0 -104 59q-105 66 -123 74zM408 950q8 -111 116 -110q66 0 107 51q29 29 28 88v6q-4 33 -32.5 64.5t-57.5 33.5h-4q-25 0 -65.5 -13t-50.5 -23q-41 -45 -41 -89v-8zM1229 354q0 184 133 299q63 53 172 86q92 27 164 27h8 q61 -2 140 -35t128 -80q115 -109 115 -264q0 -262 -279 -367q-96 -37 -168 -36q-170 0 -294 118q-119 113 -119 252zM1554 367q10 -113 117 -113q66 0 107 51q29 35 28 90v6q-4 33 -32.5 64t-57.5 33h-4q-23 0 -64.5 -13.5t-52.5 -21.5q-41 -45 -41 -88v-8z" />
<glyph unicode="&#x26;" horiz-adv-x="1546" d="M102 498q0 96 58.5 187t138.5 134q-35 111 -35 225q0 215 119 304q131 94 467 94q104 0 194 -4l158 -8l53 -283l-360 10q-244 0 -265.5 -23.5t-21.5 -101.5q0 -45 10 -117q2 -10 25 -32q6 -4 72 -4q78 0 272 8l209 8h33q102 0 184 -23l-27 -278q-55 -2 -153 -8 q-2 -57 -2 -94q0 -172 17.5 -196t246.5 -124l-113 -231q-242 70 -333 122q-172 -92 -306 -92q-354 0 -458 88q-115 96 -138 129q-29 51 -38 191q-7 103 -7 119zM451 377q2 -10 47 -94q88 -23 254 -25h5q71 0 144 53q6 174 8 283l-164 4h-73q-186 0 -205 -18q-25 -23 -25 -44 q0 -9 1 -28.5t3.5 -57t4.5 -73.5z" />
<glyph unicode="'" horiz-adv-x="454" d="M72 1442l311 -6l-18 -201l-33 -197l-209 27l-37 184z" />
<glyph unicode="(" horiz-adv-x="735" d="M72 549q0 86 20 282q20 190 35 250q16 72 238 582l315 -125q-215 -438 -238 -530q-31 -117 -30 -404q0 -354 41 -489q18 -57 231 -406l-305 -145l-238 471q-23 61 -46 239.5t-23 274.5z" />
<glyph unicode=")" horiz-adv-x="735" d="M51 -291l305 -145l236 471q23 63 48.5 241.5t23.5 272.5q0 90 -20.5 282.5t-35.5 249.5q-18 72 -239 582l-314 -125q213 -438 238 -530q31 -117 31 -404q0 -350 -43 -489q-19 -62 -230 -406z" />
<glyph unicode="*" horiz-adv-x="1013" d="M72 1030l135 60l-133 57l151 248l131 -78l-8 145l311 -6l-12 -139l129 78l164 -242l-143 -63l145 -66l-164 -242l-131 80l12 -139l-311 -6l8 143l-133 -78z" />
<glyph unicode="+" horiz-adv-x="978" d="M92 528l246 2l2 211l303 -2v-213l244 11l-4 -258h-240v-209l-299 6l-2 203h-246z" />
<glyph unicode="," horiz-adv-x="534" d="M72 -88l41 172l41 231l309 -8l-76 -299l-123 -244z" />
<glyph unicode="-" horiz-adv-x="937" d="M72 748l794 4l-4 -283h-786z" />
<glyph unicode="." horiz-adv-x="546" d="M102 115v164l152 28h172l18 -299l-153 -45l-160 8z" />
<glyph unicode="/" horiz-adv-x="1073" d="M20 -47q0 61 9.5 88t31.5 76l564 1198q6 12 80 184q96 -14 172 -43q33 -12 176 -12l-64 -144q-53 -119 -164 -335q-119 -236 -170 -347l-311 -688q-20 -47 -70 -47q-43 0 -114 43q-72 17 -140 27z" />
<glyph unicode="0" horiz-adv-x="1509" d="M92 522q0 125 57.5 251t147.5 203t268 128q147 43 252 43h17q90 -4 211.5 -54.5t193.5 -115.5q135 -123 170 -299q8 -39 8 -80q0 -399 -411 -565q-158 -63 -283 -64q-258 0 -451 178q-78 72 -129 178.5t-51 196.5zM434 559q0 -49 33 -125q27 -59 59 -90q90 -84 213 -84 q59 0 141.5 36t125.5 89q31 35 53 119q16 57 16 88q0 82 -76 170q-27 31 -84 61.5t-88 32.5h-14q-57 0 -145 -27q-98 -31 -133 -65q-101 -103 -101 -205z" />
<glyph unicode="1" horiz-adv-x="804" d="M61 897l306 213l305 20q-10 -485 -31 -1153q-111 18 -133 19q-84 0 -107.5 -5t-111.5 -46v135q0 78 9 326.5t9 314.5l-96 -59z" />
<glyph unicode="2" horiz-adv-x="1294" d="M102 987q188 119 310 156q57 18 237 18q207 0 269 -16q90 -23 149 -116t66 -214v-24q0 -119 -74 -250q-37 -63 -348 -260l481 -2l-84 -279h-903l-103 211l580 389l68 45q66 68 65 129q0 84 -35 105q-14 8 -78 8q3 0 3 -0.5t-62 -1.5q-125 -2 -178 -15q-72 -16 -197 -155z " />
<glyph unicode="3" horiz-adv-x="1294" d="M92 -236q123 23 361 142q201 100 276 157q41 29 84 76q57 59 57 84q0 80 -178 80q-111 0 -200 -22q-20 -4 -39 -5q-57 0 -102.5 37t-45.5 88q0 37 336 443h-469l45 284h897l60 -135l-359 -428q166 -16 238 -65q150 -102 149 -260q0 -94 -129 -244q-16 -18 -155 -160 q-39 -41 -314.5 -182t-353.5 -166z" />
<glyph unicode="4" horiz-adv-x="1456" d="M92 190l365 779l315 -107l-280 -588l364 -2l2 826l336 51v-873l170 -2l-41 -288h-131l4 -396h-342l2 390h-645z" />
<glyph unicode="5" horiz-adv-x="1294" d="M92 -236q190 35 490 220q289 178 288 239q0 90 -190 90q-133 0 -270 -32q-14 -4 -31 -5q-63 0 -132 51.5t-69 106.5l92 592l45 102h766l88 -284h-587l-41 -271h114q547 0 547 -333q0 -246 -663 -611q-215 -119 -289 -141z" />
<glyph unicode="6" horiz-adv-x="1376" d="M92 430q0 219 152 455q66 100 223 262q113 115 500 313l166 -250q-168 -88 -240 -129q-131 -80 -215 -163q319 -18 450 -134q156 -139 156 -321q0 -68 -20 -137q-47 -168 -207 -264.5t-379 -96.5h-39q-315 8 -457 193q-90 116 -90 272zM432 463q8 -86 22.5 -119t49.5 -59 q57 -43 160 -43h18q186 4 246 118q25 45 24 93q0 61 -47 116q-72 82 -319 82q-47 0 -107 -2q-47 -109 -47 -172v-14z" />
<glyph unicode="7" horiz-adv-x="1247" d="M51 -330l410 736q119 207 284 440l-622 -4l63 288l949 9l61 -215q-174 -211 -440 -652l-408 -718z" />
<glyph unicode="8" horiz-adv-x="1341" d="M92 399v4q0 207 254 342q-199 121 -199 295q0 188 160 308q152 111 369 110q510 0 510 -399v-29q-6 -158 -199 -276q250 -135 260 -322v-24q0 -100 -50 -195.5t-134 -151.5q-141 -96 -399 -96q-299 0 -434.5 106.5t-137.5 327.5zM422 360q0 -72 47 -93t193 -21 q143 0 192 35.5t49 119.5v9q-16 115 -227 168q-236 -66 -252 -181q-2 -14 -2 -37zM485 1021q0 -58 174 -118q197 51 197 115q0 59 -2 67q-4 41 -23 56q-35 29 -161 28q-100 0 -154 -41q-31 -24 -31 -107z" />
<glyph unicode="9" horiz-adv-x="1370" d="M92 631q0 63 10 123q31 188 195 293q158 102 403 102q14 0 52 -2q322 -18 454 -199q55 -76 68 -164q4 -29 4 -112v-64q-2 -219 -172 -485q-117 -182 -311 -342q-150 -123 -410 -283l-176 264l213 129q125 76 199 152l4 4l47 45q-313 27 -424 154q-156 178 -156 385z M434 639q0 -150 77 -208t263 -58q41 0 92 2q66 135 66 268q0 186 -150 205q-16 2 -47 2h-30q-123 0 -187 -33q-25 -12 -51.5 -44t-28.5 -48q-4 -43 -4 -86z" />
<glyph unicode=":" horiz-adv-x="546" d="M102 115v164l152 28h172l18 -299l-153 -45l-160 8zM102 831v164l152 29h172l18 -299l-153 -45l-160 8z" />
<glyph unicode=";" horiz-adv-x="595" d="M102 -88l41 172l41 231l310 -8l-76 -299l-123 -244zM133 831v164l152 29h172l18 -299l-153 -45l-160 8z" />
<glyph unicode="&#x3c;" horiz-adv-x="1234" d="M102 496l762 438l244 -197l-553 -321l578 -312l-275 -184l-743 395z" />
<glyph unicode="=" horiz-adv-x="985" d="M72 100l8 279l833 4l-4 -283h-837zM72 489l8 279l833 4l-4 -283h-837z" />
<glyph unicode="&#x3e;" horiz-adv-x="1234" d="M102 104l277 -184l741 395l13 181l-760 438l-244 -197l553 -321z" />
<glyph unicode="?" horiz-adv-x="1292" d="M102 1313q127 51 373 127q100 18 238 18q209 0 284 -28q55 -20 121 -142.5t72 -206.5v-12q0 -57 -35 -178q-43 -152 -92 -186q-37 -27 -84 -46q-96 -35 -246 -53q-8 -10 -8 -51q0 -45 10 -131l-327 -49q-12 147 -13 258q0 139 21 160q31 37 149 69q45 12 178 43 q27 6 56 19q8 4 26.5 50t18.5 68v9q-2 25 -17.5 63.5t-26.5 44.5q-8 5 -71 5q-21 0 -47 -1q-113 -2 -158 -14q-55 -14 -276 -86zM426 117v143l152 25h172l18 -260l-154 -39l-159 8z" />
<glyph unicode="@" horiz-adv-x="1568" d="M123 494v20q4 223 135 399q72 96 229.5 163t325.5 67q10 0 8 0q412 -8 561 -262q63 -109 64 -273v-20q-6 -180 -80 -295q-51 -80 -86 -113q-63 -61 -135 -61q-33 0 -60 8q-78 23 -163 170q-92 -29 -189 -31q-68 -2 -108 -4q-63 2 -95 29q-100 86 -100 166q2 131 12 178 q27 117 133 190q84 57 209 58q57 0 258 -31q4 0 12.5 -9t26.5 -9q8 0 21 2v-54q0 -205 -15 -407l11 -13q8 -2 20 -14q0 -4 -4 -8h2q20 0 53 66q39 78 39 167v150q-2 70 -18 94q-102 147 -365 148h-20q-209 -2 -330 -114t-129 -325v-41q0 -104 27 -145q98 -147 321 -147 q55 0 135 20q14 2 72 18l129 -137q-184 -88 -305 -90h-29q-342 0 -506 229q-67 93 -67 261zM651 543q0 -27 2 -68q18 -16 39 -18q78 0 191 28q4 43 4 95v100q-53 12 -86 12q-135 0 -148 -114q-2 -17 -2 -35z" />
<glyph unicode="A" horiz-adv-x="1654" d="M82 20q33 158 80 293l-60 4l9 285h149q72 190 184 402l224 419l329 17l234 -451q127 -250 201 -465l75 -219q47 -141 76 -285l-358 -53q-33 188 -76 342l-633 2q-41 -154 -74 -344zM621 604q150 -2 288 -2h138q-125 289 -211 442q-115 -194 -215 -440z" />
<glyph unicode="B" horiz-adv-x="1470" d="M174 1411q96 20 277 27q109 4 161 4q406 0 523 -105q88 -80 88 -250q0 -129 -41 -210l-31 -62q72 -29 117 -104q80 -129 80 -187q0 -12 -7.5 -65t-7.5 -78q-6 -121 -55 -186q-70 -94 -127 -127q-152 -90 -453 -91q-59 0 -243 9q-43 -6 -93 -6q-76 0 -163 14 q-23 47 -23 137l2 1151q0 20 -4 129zM518 594l6 -324q104 -6 187 -6q143 0 215 21q35 41 67 92l8 158q-2 35 -26 45q-39 23 -230 22q-37 0 -83 -2q-25 -2 -144 -6zM522 885h142q133 0 151 6q4 2 39 51q39 92 39 137q0 41 -18 56q-31 20 -136 24h-37q-66 0 -172 -4 q-6 -151 -8 -270z" />
<glyph unicode="C" horiz-adv-x="1447" d="M102 565q0 233 105.5 439t284.5 307q199 113 755 129l99 -283q-571 0 -674 -84q-86 -72 -146.5 -212t-60.5 -265q0 -348 409 -352h7q156 0 462 100l-10 -303q-254 -68 -471 -68q-354 0 -557 156.5t-203 435.5z" />
<glyph unicode="D" horiz-adv-x="1589" d="M174 1432q154 12 287 16q154 4 270 4q326 0 488 -80q227 -111 237 -399q0 -12 -12 -264q-6 -131 -74 -275q-51 -109 -115 -182q-43 -49 -181 -117.5t-265 -103.5q-72 -20 -172 -25l-115 -6q-53 -2 -57 -4q-80 -8 -146 -8q-68 0 -120 8q-23 47 -23 137l2 1149q0 23 -4 150 zM520 653q0 -18 2 -161l2 -218q188 8 357 97q80 43 94 59q121 145 133 299l16 207q-2 111 -44 160t-133 59t-255 10q-76 0 -166 -2q-6 -215 -6 -510z" />
<glyph unicode="E" horiz-adv-x="1454" d="M92 471l8 291l113 -2l-2 522q0 20 -4 150q197 6 278 6l842 -2l4 -295l-772 4q-4 -156 -4 -387q256 0 686 8l-4 -295l-682 -2l2 -199l795 19l-4 -295l-859 2q-78 -8 -143 -8t-121 8q-16 35 -20 67v25q-2 14 0 35q4 45 4 65v281z" />
<glyph unicode="F" horiz-adv-x="1382" d="M92 471l8 295q68 -4 111 -6v233q0 317 -4 439q193 6 285 6l835 -2l4 -295l-768 4q-8 -223 -10 -387q240 0 688 8l-4 -295h-684q4 -258 4 -401q0 -49 -2 -82q-106 8 -154 8q-10 0 -47 -4t-49 -4q-16 0 -86 8l-6 475h-121z" />
<glyph unicode="G" horiz-adv-x="1599" d="M102 567q0 233 111 439t297 307q205 111 784 127l103 -283q-600 0 -707 -84q-90 -72 -152.5 -210t-62.5 -257v-8q0 -352 418 -352q119 0 256 30l2 279h-307l51 281l602 26l-20 -799q-383 -86 -582 -86q-369 0 -581 155.5t-212 434.5z" />
<glyph unicode="H" horiz-adv-x="1660" d="M92 477l8 287h103q0 539 -4 637q90 35 178 39h-4q61 -2 184 -2q2 -133 2 -158q0 -90 -6 -260q-8 -176 -8 -258l600 6q0 88 -10 285q-8 184 -9 282l2 103q123 0 185 2h-4q88 -4 178 -39q-6 -155 -7 -391q0 -141 3 -312q3 -247 3 -422.5t-3 -279.5q-55 2 -99 2 q-27 0 -77 -3t-74.5 -3t-95.5 2l2 483l-590 -2l8 -405q0 -49 -2 -82q-106 8 -154 8q-16 0 -47.5 -4t-48 -4t-86.5 8l-6 477z" />
<glyph unicode="I" horiz-adv-x="708" d="M174 86l8 649v189q0 47 1 91q0 222 -9 386q92 35 176 39q4 0 185 -2q-15 -592 -15 -991q0 -217 4 -377l2 -82h-108q-60 -1 -97.5 -1t-52.5 1l-90 6z" />
<glyph unicode="J" horiz-adv-x="1153" d="M133 -37l51 275q217 8 293 26q100 23 148 88q33 43 32 537q0 199 -8 530l342 23q8 -268 8 -522q0 -647 -59 -719q-197 -240 -711 -240q-47 0 -96 2z" />
<glyph unicode="K" horiz-adv-x="1550" d="M174 1403q90 35 178 39h-4q27 -2 184 -2l3 -113q1 -21 0 -46q0 -75 -5 -185q-8 -176 -8 -246q43 31 68 51q127 104 526 574l316 -129l-514 -562l602 -680l-283 -188l-582 664l-135 -76l4 -438q0 -33 -6 -82q-109 8 -151 8q-16 0 -23 -2q-25 -2 -70 -4q-41 0 -75 4 q-23 49 -23 139l2 1153q0 23 -4 121z" />
<glyph unicode="L" horiz-adv-x="1370" d="M174 1401q90 35 178 39h-4q27 -2 184 -2l3 -111q1 -39 1 -88q0 -99 -6 -242q-10 -244 -10 -346q0 -20 2 -161.5t2 -219.5l795 19l-4 -295l-875 -2q-57 -6 -110 -6q-68 0 -131 10q-23 47 -23 137l2 1149q0 21 -4 119z" />
<glyph unicode="M" horiz-adv-x="1953" d="M82 31q68 795 184 1403l338 24q227 -481 373 -883q150 420 373 883l338 -24q115 -592 184 -1403l-334 -68q-33 305 -90 918l-338 -885l-266 2q-35 104 -144 385l-186 475q-41 -346 -98 -895z" />
<glyph unicode="N" horiz-adv-x="1656" d="M133 1401q100 39 203 39q4 0 68.5 -2t101.5 -2l317 -506q180 -274 353 -486l2 207q1 51 0 107q0 248 -15 569q0 2 2 111q176 0 185 2h-4q88 -4 178 -39q-4 -100 -4 -119q2 -145 2 -393v-756q0 -90 -23 -137q-33 -4 -110 -4h-58q-111 4 -168 12l-145 131q-82 78 -133 141 q-178 219 -404 570l-2 -195q0 -20 2 -289l2 -292q0 -20 11 -82q-121 8 -166 8q-18 0 -25 -2q-31 -4 -63 -4q-41 0 -82 6q-23 47 -23 137l2 1149q0 21 -4 119z" />
<glyph unicode="O" d="M92 645q0 133 43 285q55 197 152 291q102 104 323 170q188 57 334 57q98 0 242 -53q172 -63 258 -158q59 -66 104 -188.5t45 -212.5q0 -150 -49 -318q-57 -201 -160.5 -312.5t-296.5 -180.5q-174 -61 -321 -62q-123 0 -264.5 60.5t-227.5 152.5q-78 82 -130 220t-52 249z M436 655q0 -57 32 -145t72 -134t112.5 -81t127.5 -35q59 0 155.5 29.5t141.5 64.5q84 66 131 219q37 121 37 232q0 49 -17.5 119.5t-39.5 105.5q-31 45 -106.5 84t-129.5 39q-90 0 -221 -43q-137 -43 -183 -92t-79 -158t-33 -205z" />
<glyph unicode="P" horiz-adv-x="1462" d="M174 1430q428 27 623 26q76 0 104 -4q147 -20 176 -27q98 -20 162 -63q131 -88 131 -318q0 -139 -51 -271t-133 -200q-106 -88 -658 -200q0 -70 -2 -176l-2 -127q0 -33 -6 -80q-100 6 -143 6q-23 0 -31 -2q-14 -2 -43 -2q-43 0 -121 4q-4 82 -4 137l2 1151q0 21 -4 146z M520 674q365 80 420 108q86 43 86 242q0 80 -18 92q-45 25 -195 55q-14 4 -86 4.5t-201 -4.5q-6 -205 -6 -399v-98z" />
<glyph unicode="Q" horiz-adv-x="1751" d="M102 635q0 137 43 289q55 199 154.5 300t321.5 167q190 57 333 57q100 0 244 -53q166 -61 256 -162q59 -68 104.5 -191.5t45.5 -214.5q0 -160 -52.5 -331.5t-136.5 -280.5l295 -270l-254 -205l-303 285q-188 -80 -377 -80q-123 0 -264 61.5t-227 155.5q-78 84 -130.5 222 t-52.5 251zM446 645q0 -57 32 -146t72 -137.5t111.5 -83t129.5 -34.5q59 0 155 30.5t141 65.5q76 59 123 197q45 127 45 262q0 51 -17 121.5t-40 103.5q-31 47 -106.5 87t-128.5 40q-78 0 -211 -41q-141 -43 -192.5 -95t-84.5 -175q-29 -107 -29 -195z" />
<glyph unicode="R" horiz-adv-x="1462" d="M174 1430q428 27 623 26q76 0 104 -4q150 -20 176 -27q100 -20 162 -63q131 -90 131 -318q0 -141 -51 -273t-133 -200q-41 -35 -144 -69l316 -422l-307 -141l-346 469l-177 -37q0 -70 -2 -176l-2 -129q0 -31 -6 -80q-121 6 -160 6h-14q-6 0 -57 -2q-18 -1 -37 -1l-74 3 v139l2 1151q0 23 -4 148zM520 672q365 80 420 108q86 43 86 244q0 80 -18 90q-45 27 -195 57q-14 4 -72 5q-74 0 -215 -7q-6 -205 -6 -399v-98z" />
<glyph unicode="S" horiz-adv-x="1388" d="M61 258l267 -4q397 0 594 84q55 23 55 86q0 27 -78 45l-324 78q-246 59 -350 153.5t-104 249.5q0 135 123 258q100 100 200 131q328 100 695 101l104 -318l-217 4h2q-549 0 -549 -176q0 -59 203 -104l266 -58q379 -92 379 -331q0 -233 -229 -365q-240 -135 -684 -135 q-106 0 -281 14z" />
<glyph unicode="T" horiz-adv-x="1456" d="M72 1147l51 293l602 -2q141 0 621 8l38 -301q-143 8 -479 20q-2 -96 -2 -520q0 -49 2 -287l2 -288q0 -37 -16 -80q-92 6 -133 6q-20 0 -29 -2q-14 -2 -43 -2q-43 0 -121 4q-4 82 -4 137l2 1026z" />
<glyph unicode="U" horiz-adv-x="1542" d="M102 1411l361 64q-12 -301 -12 -533q0 -35 2 -86v-80q0 -117 10 -399q8 -135 61 -135h4q8 0 263 63q145 35 270 70l-25 1059h353l10 -1418l-344 -53v103l-469 -119q-72 -16 -131 -17q-231 0 -301 277q-29 119 -39 614q-9 553 -13 590z" />
<glyph unicode="V" d="M51 1397l359 63q190 -694 432 -1098q244 403 434 1098l358 -63q-223 -727 -612 -1403h-358q-390 676 -613 1403z" />
<glyph unicode="W" horiz-adv-x="2236" d="M51 1397l350 61q193 -698 441 -1110q47 78 94 172q-184 385 -334 877l350 61q86 -309 164 -524q86 225 168 524l350 -61q-145 -475 -338 -877q47 -90 97 -172q250 410 440 1110l352 -61q-223 -727 -616 -1403h-352l-101 176q-41 -80 -96 -176h-354q-392 676 -615 1403z " />
<glyph unicode="X" horiz-adv-x="1529" d="M51 1374l340 82q94 -156 361 -547q176 242 358 549l328 -108q-106 -193 -471 -697l512 -551l-226 -186q-141 133 -487 485q-260 -299 -504 -497l-207 207l277 286q135 143 223 250q-314 377 -504 727z" />
<glyph unicode="Y" horiz-adv-x="1515" d="M51 1389l379 57q14 -184 96 -379q47 -111 148 -244q88 -117 100 -116q25 0 93.5 124.5t113.5 245.5q74 203 100 365l383 -47l-164 -424q-61 -156 -149 -275q-63 -88 -201 -229l-2 -463l-346 -10l-2 465q-240 211 -379 477q-98 185 -170 453z" />
<glyph unicode="Z" horiz-adv-x="1550" d="M102 217l500 459q160 168 381 463l-819 -2l59 286l1145 11l64 -224l-291 -385q-166 -215 -312 -370q-61 -66 -184 -164l803 -4l-78 -287h-1173z" />
<glyph unicode="[" horiz-adv-x="690" d="M102 1585q66 6 258 17l279 8l-14 -277l-187 -12q-10 -473 -10 -676q0 -74 4 -686h195v-293h-355q-14 -2 -43 -2q-45 0 -123 4q-2 86 -2 142l2 1632q0 20 -4 143z" />
<glyph unicode="\" horiz-adv-x="1114" d="M41 1444l63 -144q51 -121 162 -335q123 -240 172 -347l312 -688q23 -47 69 -47q43 0 115 43q72 16 139 27q0 61 -8 88q-2 8 -33 76l-563 1198q-6 12 -80 184q-94 -14 -172 -43q-33 -12 -176 -12z" />
<glyph unicode="]" horiz-adv-x="690" d="M51 1610l281 -8q39 0 256 14l-4 -174l2 -164v-467v-1001q0 -61 -2 -142q-78 -4 -123 -4q-29 0 -43 2q-6 2 -94 2q-90 0 -261 -2v293h195l4 686q0 203 -8 676l-186 12z" />
<glyph unicode="^" horiz-adv-x="1257" d="M102 1268l430 288h220l403 -276l-135 -217l-383 242l-373 -238z" />
<glyph unicode="_" horiz-adv-x="1359" d="M102 31l1207 4l-15 -283h-1188z" />
<glyph unicode="`" horiz-adv-x="903" d="M102 1561l177 204l522 -276l-152 -201z" />
<glyph unicode="a" horiz-adv-x="1267" d="M82 324q0 100 63 198q74 113 195 158q98 35 442 92q4 23 15 59q8 29 8 37q0 10 -10 9q-74 -8 -187 -25q-98 -18 -401 -111l-103 254q88 33 170 58q195 61 320 77l123 19q49 6 90 6q221 0 280 -227q31 -117 31 -467t17 -449l-353 -63v55q-137 -31 -233 -31q-328 0 -399 54 q-49 35 -62 139q-6 41 -6 158zM414 319q-5 -30 -6 -49q0 -26 10 -32q-8 6 114 6q96 0 259 39q0 111 -3 213q-328 -31 -360 -99q-4 -8 -14 -78z" />
<glyph unicode="b" horiz-adv-x="1357" d="M154 133q0 147 6 450.5t6 366.5q0 111 -4 291v143q145 53 356 54l2 -113q-8 -121 -10 -205q156 57 221 62q29 2 43 2q117 0 254 -39q154 -43 170 -88q57 -160 57 -359q0 -133 -25.5 -259t-58.5 -167q-106 -131 -362 -211q-209 -66 -395 -65h-33q-49 2 -88 2 q-57 0 -135 -2q-4 82 -4 137zM508 291q285 39 371 137q16 16 33.5 97t17.5 153q0 100 -35 186q-14 33 -37 33h-113q-29 0 -237 -76v-61q2 -68 2 -131v-193q0 -57 -2 -145z" />
<glyph unicode="c" horiz-adv-x="1212" d="M72 457q0 188 84 349t227 241q154 86 627 102l100 -287q-80 2 -149 2q-209 0 -308 -20q-90 -18 -129 -64q-18 -23 -55 -112q-43 -102 -43 -187q0 -229 248 -229q147 0 422 94l-11 -307q-215 -59 -397 -59q-285 0 -450.5 127t-165.5 350z" />
<glyph unicode="d" horiz-adv-x="1370" d="M102 477q0 129 26 256t58 170q166 211 670 268q-6 117 -6 215q137 47 326 48h30l2 -111q0 -41 -2 -131q-4 -96 -4 -148q0 -88 2 -165l13 -445v-141q1 -90 1 -146.5t-1 -78.5l-3 -70q-98 0 -235 -4h-10q-25 0 -92 6q-2 20 -9 59q-174 -61 -241 -65q-29 -2 -43 -2 q-113 0 -250 39q-158 45 -174 88q-58 157 -58 358zM426 504q0 -100 35 -182q18 -43 39 -46h24q102 0 193 31l147 51v525q-299 -41 -385 -138q-12 -14 -30 -77q-23 -82 -23 -164z" />
<glyph unicode="e" horiz-adv-x="1286" d="M72 522q0 133 34 256q47 172 148 246q53 39 197.5 80t240.5 43h8q80 0 195 -40t172 -87q41 -33 92 -157t55 -195v-27q0 -63 -14 -170l-760 -88q25 -68 68 -94q27 -16 145 -31q29 -6 52 -6q129 0 399 94l-10 -307q-227 -63 -398 -64h-71q-264 0 -387 103q-74 63 -123 213 q-43 135 -43 231zM422 655l463 56q-8 33 -54 92q-10 12 -57 32.5t-67 20.5q-63 -2 -142.5 -24.5t-101.5 -40.5q-29 -25 -41 -136z" />
<glyph unicode="f" horiz-adv-x="950" d="M76 811l8 270h160q20 168 61 226q33 47 131 77q176 53 359 54q76 0 196 -19l-104 -241h-123q-94 -2 -170 -23q-20 -6 -21 -74h283l-27 -276l-270 2v-102q0 -285 27 -717l-373 -8q18 106 18 348v94l-2 387z" />
<glyph unicode="g" horiz-adv-x="1511" d="M31 -199l192 219q197 -158 453 -157h24q145 4 166 6q100 12 101 47v4q0 4 -20.5 26.5t-31.5 28.5q-45 23 -241 25q-207 2 -285 27q-92 31 -92 98q0 35 78 223q-221 125 -221 326q0 276 192 387q150 86 451 86q115 0 211 -37q82 63 198 64h21l254 -228q-215 -29 -252 -41 q25 -61 28 -127v-20q0 -455 -567 -463l-22 -68q98 12 219 13q135 0 200 -21q51 -18 105 -65q102 -94 111 -203v-8q0 -150 -222 -260q-188 -92 -360 -93h-8q-184 2 -305 31q-201 49 -377 180zM483 678q0 -55 51.5 -92t135.5 -37h8q166 6 215 59q35 39 35 152q0 115 -125 114 q-174 0 -238 -32q-82 -41 -82 -164z" />
<glyph unicode="h" horiz-adv-x="1382" d="M154 1401l338 51v-358l346 80q59 14 108 14q205 0 264 -238q31 -123 31 -479v-102l-2 -113q0 -129 21 -242l-359 -67q10 268 10 459v102q0 154 -10 293q-6 94 -43 94h-4q-55 -4 -367 -92l19 -805h-346z" />
<glyph unicode="i" horiz-adv-x="692" d="M154 1341v127l170 29h192l23 -246l-172 -45l-179 8zM166 205v57q4 119 4 232q0 29 -2 188.5t-2 331.5v88q57 -6 108 -6q139 0 242 41v-281q-3 -120 -3 -186q0 -33 1 -52l8 -415q2 -102 6 -211q-66 14 -120 14q-66 0 -240 -41z" />
<glyph unicode="j" horiz-adv-x="747" d="M-193 -260q172 88 244 137t142 135q53 63 53 559q0 209 -13 543l342 21q8 -240 9 -480q0 -686 -80 -784q-88 -109 -174 -174q-92 -70 -285 -166zM209 1317v149l170 31h192l23 -250l-174 -49l-176 10z" />
<glyph unicode="k" horiz-adv-x="1284" d="M129 -25q4 74 4 97q0 86 3 387t3 385q0 123 -2 217l-4 323q145 53 356 54v-109q0 -115 -16 -588q141 106 436 433l308 -125l-408 -431l444 -563l-282 -188l-424 553q-43 -29 -78 -49q0 -41 6 -141.5t6 -141.5q0 -20 2 -121q-72 8 -178 17q-20 -3 -176 -9z" />
<glyph unicode="l" horiz-adv-x="665" d="M154 1241v143q145 53 354 54l4 -113q-4 -98 -4 -362q0 -176 2 -527v-94q0 -123 -2 -354q-125 14 -166 14h-14q-41 -8 -111 -8q-27 0 -57 2q-2 51 -2 80v22l2 555q0 447 -6 588z" />
<glyph unicode="m" horiz-adv-x="2117" d="M154 1090l338 53v-74l272 64q119 27 182 26q139 0 211 -106l406 94q53 12 110 12q213 0 273 -231q31 -117 30 -469v-101l-2 -108q0 -125 21 -238l-369 -63q10 262 10 446v101q0 147 -10 284q-6 92 -43 92h-4q-70 -4 -348 -90q10 -125 10 -381v-90q0 -16 -2 -51v-39 q0 -102 21 -209l-359 -65q10 262 10 448v101q0 147 -10 284q-6 92 -43 92h-4q-82 -8 -367 -90l19 -786h-346z" />
<glyph unicode="n" horiz-adv-x="1382" d="M154 1090l338 53v-74l272 64q119 27 182 26q205 0 264 -231q31 -119 31 -469v-101l-2 -108q0 -125 21 -238l-359 -65q10 262 10 448v101q0 147 -10 284q-6 92 -43 92h-4q-82 -8 -367 -90l19 -786h-346z" />
<glyph unicode="o" horiz-adv-x="1380" d="M72 522q0 111 67.5 271.5t142 218t213 96.5t273.5 39q111 0 230.5 -49t187.5 -123q119 -127 123 -309v-19q0 -125 -49 -266q-53 -154 -121 -211q-76 -66 -209 -125q-166 -74 -299 -74q-106 0 -245.5 65.5t-187.5 137.5t-87 176t-39 172zM416 528q0 -86 73 -192 q16 -23 61.5 -47.5t82.5 -24.5h4q68 4 139.5 34t104.5 64q27 29 54.5 117t27.5 162q0 94 -53.5 154.5t-135.5 60.5q-172 0 -268 -78q-35 -29 -62.5 -104.5t-27.5 -145.5z" />
<glyph unicode="p" horiz-adv-x="1378" d="M154 1090q141 55 350 55v-62q182 70 305 70q309 0 399 -121q68 -90 68 -366q0 -356 -171 -516t-601 -193l-2 -358q-137 -10 -342 -66q4 154 4 420q0 424 -10 1137zM494 696q0 -53 8 -448q266 25 356 110.5t90 305.5q0 139 -22 165q-29 35 -160 35q-31 0 -270 -90z" />
<glyph unicode="q" horiz-adv-x="1480" d="M102 635q0 47 4 96q4 63 68 238q27 74 211 135q147 49 262 49q4 0 33 -2q74 -4 246 -70v56l344 -23l-31 -1196v-4q0 -94 201 -168l-246 -233q-293 150 -293 354q0 10 0 8l2 111q-170 -39 -315 -39q-274 0 -383 139q-37 47 -70 213q-33 174 -33 336zM440 608 q0 -96 21 -223q20 -117 33 -133q39 -45 131 -45q111 0 284 63l11 510q-225 84 -252 84q-51 -2 -115 -19.5t-68 -29.5q-41 -98 -43 -143q-2 -27 -2 -64z" />
<glyph unicode="r" horiz-adv-x="1024" d="M154 1090l346 51v-45q92 33 176 49q10 2 26 2q74 0 281 -49l-131 -318q-57 45 -133 92h-8q-84 0 -217 -73l6 -797h-340z" />
<glyph unicode="s" horiz-adv-x="1179" d="M61 252q260 -20 371 -21q332 0 346 109l-225 57q-211 57 -285 105q-145 90 -145 246q0 119 123 227q102 90 217 117q195 47 500 55l112 -299q-225 20 -311 20q-289 0 -289 -116q0 -14 74 -37l225 -66q344 -100 344 -274q0 -88 -69.5 -185.5t-167.5 -140.5 q-177 -78 -519 -78q-119 0 -223 9z" />
<glyph unicode="t" horiz-adv-x="1024" d="M82 883l8 272h174l4 221l336 43l-2 -264h285l-4 -276l-281 2l-4 -482q0 -72 6 -94t33 -47q51 -45 305 -102l-207 -260q-303 125 -375 200q-63 68 -84.5 124t-21.5 161v20l8 480z" />
<glyph unicode="u" horiz-adv-x="1361" d="M102 1094l359 65q-12 -270 -12 -459v-90q2 -147 12 -284q6 -92 43 -93h4q78 8 182 37l184 54l-18 786h344l8 -1094l-338 -53v74l-272 -62q-121 -29 -182 -28q-205 0 -264 231q-31 119 -31 469v101l2 108q-1 125 -21 238z" />
<glyph unicode="v" horiz-adv-x="1468" d="M61 1096l353 53q96 -334 276 -727l45 -88l6 16l129 275q102 238 185 524l352 -53q-143 -422 -248 -625q-88 -168 -270 -475h-309l-271 475q-86 158 -248 625z" />
<glyph unicode="w" horiz-adv-x="1970" d="M31 1096l352 53q111 -416 184 -580q55 -127 123 -237q102 131 168 260q-74 184 -172 504l352 53q109 -408 187 -582q55 -123 108 -213q154 295 252 795l354 -45q-113 -442 -192 -629q-96 -221 -258 -473l-307 -8l-162 270q-80 -119 -193 -262l-301 -8q-150 242 -272 479 q-71 142 -223 623z" />
<glyph unicode="x" horiz-adv-x="1386" d="M72 113q244 203 420 399l-412 508l323 141l293 -409q121 156 287 401l313 -102q-178 -289 -391 -545l410 -412l-260 -172l-350 357q-221 -231 -431 -363z" />
<glyph unicode="y" horiz-adv-x="1353" d="M61 1077l351 66q102 -514 172 -637q45 -78 145 -193q88 174 133 358.5t72 473.5l358 -47q-55 -371 -131 -596.5t-233 -491.5q-70 -119 -152 -221q-39 -49 -209 -242l-303 140q211 221 293 338q-188 199 -266 315q-93 139 -230 737z" />
<glyph unicode="z" horiz-adv-x="1310" d="M82 203q96 76 336 286q164 150 325 365l-610 -2l66 278l946 9l61 -205q-299 -406 -559 -653l582 -5l-84 -276h-963z" />
<glyph unicode="{" horiz-adv-x="948" d="M72 606q170 150 182 246q2 8 8 119q4 88 25 166q0 70 2 125q6 139 43 229q49 117 520 149l-16 -245q-29 2 -54 2q-133 0 -151 -39q-23 -51 -23 -197v-24q0 -27 -12 -104t-12 -97q-4 -125 -15 -172q-18 -80 -90 -158q70 -76 92 -153q6 -27 13.5 -143.5t19.5 -162.5 q6 -23 6 -73q0 -121 29 -169t106 -48q63 0 173 28l-74 -315q-459 35 -508 149q-37 84 -47 344v11q-20 78 -25 166q-6 111 -8 118q-12 98 -184 248z" />
<glyph unicode="|" horiz-adv-x="667" d="M164 1442q90 35 168 39h-4q25 -2 174 -2l2 -113v-50q0 -110 -6 -292q-8 -252 -9 -375q0 2 3 -92q2 -113 2 -240q2 -132 2 -215t-2 -116q0 -14 -7 -23q-20 -53 -86 -53q-23 2 -67 2q-31 -4 -64 -4q-41 0 -82 6q-23 47 -22 139l2 1268q0 21 -4 121z" />
<glyph unicode="}" horiz-adv-x="948" d="M31 -115q109 -29 172 -28q78 0 106.5 48t28.5 169q0 27 11 104.5t13 95.5q6 143 13 175q18 78 94 157q-70 76 -90 154q-6 27 -13.5 142.5t-19.5 160.5q-6 25 -6 74q0 168 -23 221q-16 39 -153 39q-25 0 -53 -2l-17 245q469 -29 520 -149q33 -80 39 -168q2 -57 9 -174v-12 q20 -78 24 -166l6 -119q14 -96 185 -246q-92 -80 -111 -98q-61 -61 -64 -94q-25 -260 -43 -340q-2 -35 -4 -125q-6 -139 -43 -230q-49 -117 -510 -149z" />
<glyph unicode="~" horiz-adv-x="1667" d="M92 1227q381 250 533 250q61 0 249.5 -106.5t186.5 -106.5q53 0 311 252l203 -244q-369 -301 -504 -301q-66 0 -257 103.5t-206 103.5q-92 -2 -340 -211z" />
<glyph unicode="&#xa1;" horiz-adv-x="577" d="M104 -369l23 717l-4 328h344l-8 -338l26 -688zM113 1036l153 39l160 -8l29 -123v-141l-152 -25h-172z" />
<glyph unicode="&#xa2;" horiz-adv-x="1284" d="M123 598q0 170 100.5 341t253.5 259q57 33 150 57l6 144l303 -4l-4 -99q68 4 170 7l100 -291q-90 2 -159.5 2t-120.5 -2l-19 -615q84 14 285 86l-10 -313q-160 -45 -283 -57l-6 -125l-299 8l4 127q-219 43 -345 169t-126 306zM477 621q0 -113 125 -191l14 488 q-139 -191 -139 -297z" />
<glyph unicode="&#xa3;" horiz-adv-x="1304" d="M102 866h140q0 16 -3 75.5t-3 76.5q0 154 75 219q115 102 416 102q76 0 168 -4q123 -6 147 -8l52 -280l-308 10q-193 0 -214 -21.5t-21 -93.5q0 -33 4 -76l539 2l22 -274l-553 2l2 -309q168 -13 260 -13h25q72 0 340 17l12 -281q-180 -8 -356 -14h-66q-137 0 -344 6 l-297 -45l-26 291q53 -6 110 -6h29v2q0 6 -4 22l-6 330l-136 -2z" />
<glyph unicode="&#xa4;" horiz-adv-x="1329" d="M102 522l156 -2l6 72l-135 -2l-2 219l211 2q80 158 215 236q145 86 586 100l80 -240q-68 2 -127 2q-326 0 -394 -57q-16 -14 -34 -37l563 -2l-2 -223l-670 2q-2 -20 -4 -68h670l-4 -221h-617q70 -94 248 -96l158 -2q100 8 208 47l-6 -238q-121 -35 -368 -34 q-219 0 -366.5 82.5t-197.5 236.5l-170 4z" />
<glyph unicode="&#xa5;" horiz-adv-x="1511" d="M51 1389l369 57q14 -178 98 -379q47 -113 150 -248q90 -119 104 -119q27 0 97.5 127t117.5 252q76 203 100 363l373 -47l-160 -420q-88 -225 -292 -443h286l-4 -292l-346 -4v-232l-338 -10v239l-348 7l-4 288h272q-321 308 -475 861z" />
<glyph unicode="&#xa6;" horiz-adv-x="626" d="M195 623q74 12 129 12h129v-39q1 -7 1 -11.5t-1 -6.5q-12 -156 -13 -320q0 -18 2 -149l2 -170q0 -35 -53 -35q-76 0 -80 2h2q-39 -2 -69 -2h-27q-18 20 -18 71l2 582q0 11 -6 66zM195 1462q70 14 258 15v-41q1 -7 1 -12t-1 -7q-12 -172 -13 -377q0 -25 2 -139l2 -153 q0 -35 -53 -35h-80h2q-39 -2 -69 -2h-27q-18 23 -18 75l2 609q0 10 -6 67z" />
<glyph unicode="&#xa7;" horiz-adv-x="1261" d="M102 258q166 -14 281 -14q252 0 416 67q-160 20 -215 29q-115 18 -176 37q-244 74 -244 278q0 104 92 189q-92 76 -92 198q0 121 127 226q100 82 213 110q193 47 497 56l115 -306q-156 14 -254 15q-158 0 -256 -33q-31 -10 -67 -25q-23 -12 -23 -36q0 -20 160 -56 q236 -51 305 -80q178 -76 178 -217q0 -96 -84 -186q84 -63 84 -162q0 -84 -65.5 -166t-171.5 -129q-180 -82 -519 -82q-119 0 -223 11zM516 662q0 -47 121 -48q45 0 76 11q84 29 108 47q0 14 -39 24q-16 4 -155 21q-4 0 -52.5 -17.5t-53.5 -20.5t-5 -17z" />
<glyph unicode="&#xa8;" horiz-adv-x="915" d="M82 1556v144l137 26h158l16 -262l-139 -39l-145 9zM522 1464l140 -39l145 9l27 122v144l-140 26h-155z" />
<glyph unicode="&#xa9;" horiz-adv-x="1447" d="M102 721q0 131 53.5 263t135.5 208t258 133q147 47 239 47h15q82 -4 195.5 -56t179.5 -120q127 -129 161 -307q6 -37 7 -80q0 -242 -146 -416q-82 -98 -233.5 -168.5t-274.5 -70.5q-240 0 -420 184q-74 74 -122 184.5t-48 198.5zM305 762q0 -74 39 -170q35 -84 82 -133 q119 -121 283 -121q86 0 186 50t158 126q43 55 69 166q20 88 21 129q0 115 -99 240q-39 49 -112.5 92t-124.5 49h-21q-72 0 -180 -37q-125 -43 -174 -98q-127 -143 -127 -293zM426 719q0 104 42 194.5t116 135.5q51 33 159 32q8 0 61.5 -2t76.5 -2l75 -153q-246 0 -268 -21 q-66 -61 -65 -170q0 -111 120 -112h5q53 0 202 53l-6 -189q-121 -35 -205 -34q-145 0 -229 71.5t-84 196.5z" />
<glyph unicode="&#xaa;" horiz-adv-x="739" d="M102 1026q0 100 115 152q53 25 201 51q0 45 -21 45q-12 -2 -45 -10q-39 -8 -182 -64l-66 174q135 55 252 78l21 4l35 4q35 4 45 4q123 0 153 -133q14 -63 15 -237v-107q0 -57 12 -135l-217 -43v27q-45 -8 -80 -9q-160 0 -199 32t-39 167zM311 1032q10 -6 17 -20 q35 0 96 14v37q-105 -8 -113 -31z" />
<glyph unicode="&#xab;" horiz-adv-x="1515" d="M102 594l545 432l174 -192l-395 -320l414 -309l-197 -180l-532 389zM676 594l545 432l174 -192l-396 -320l414 -309l-196 -180l-533 389z" />
<glyph unicode="&#xac;" horiz-adv-x="1617" d="M102 764l1414 2l-13 -684l-309 24l-6 338l-1067 -4z" />
<glyph unicode="&#xad;" horiz-adv-x="897" d="M72 522l753 4l-4 -241h-745z" />
<glyph unicode="&#xae;" horiz-adv-x="1447" d="M102 721q0 131 53.5 263t135.5 208t258 133q145 47 237 47h17q80 -4 194.5 -56t180.5 -120q127 -129 161 -307q6 -37 7 -80q0 -242 -146 -416q-82 -98 -233.5 -168.5t-274.5 -70.5q-240 0 -420 184q-74 74 -122 184.5t-48 198.5zM305 762q0 -74 39 -170q35 -84 82 -133 q119 -121 283 -121q86 0 186 50t158 126q43 55 69 166q20 88 21 129q0 115 -99 240q-39 49 -112.5 92t-124.5 49h-21q-72 0 -180 -37q-125 -43 -174 -98q-127 -143 -127 -293zM524 1042q178 12 244 13q23 0 33 -2l63 -13q37 -10 62 -28q55 -41 55 -144q0 -68 -26.5 -129 t-67.5 -84l102 -155l-155 -82l-117 180l-12 -4v-107q0 -43 -50 -43q-37 0 -112 7q-16 39 -17 73v8q2 12 2 426q0 8 -4 84zM702 772q80 20 91 27q18 10 20 71q-25 16 -88 17h-20q-3 -56 -3 -115z" />
<glyph unicode="&#xaf;" horiz-adv-x="1011" d="M102 1659l807 4l-2 -217h-801z" />
<glyph unicode="&#xb0;" horiz-adv-x="831" d="M102 1174q0 59 34 138t75 109q90 68 242 68q117 0 194.5 -69.5t81.5 -178.5v-8q0 -66 -27.5 -138.5t-62.5 -103.5q-43 -39 -116.5 -67.5t-135.5 -28.5q-55 0 -126 34t-95 70q-64 95 -64 175zM315 1178q0 -33 29 -74q13 -21 42 -21h5q125 2 125 146q0 72 -61 71 q-140 1 -140 -122z" />
<glyph unicode="&#xb1;" horiz-adv-x="1095" d="M102 -43l7 197l884 4l-4 -201h-887zM186 672l246 2l2 211l303 -2v-213l244 10l-4 -258h-240v-209l-299 6l-2 203h-246z" />
<glyph unicode="&#xb2;" horiz-adv-x="907" d="M102 899l390 270q49 33 49 113v18q-18 2 -35 8.5t-47 6.5q-39 0 -119 -17q-33 -8 -113 -122l-125 208q57 41 195 111q45 12 176 12q127 -2 168 -12q113 -31 125 -219v-12q0 -80 -47 -166q-23 -41 -180 -146l266 -2l-57 -200h-574z" />
<glyph unicode="&#xb3;" horiz-adv-x="921" d="M102 645q92 18 234 88q115 55 168 98q80 61 80 89q0 41 -80 41q-59 0 -129 -19q-14 -4 -29 -4q-43 0 -74.5 27.5t-31.5 64.5q0 23 188 262h-272l32 207h574l43 -100l-209 -254q223 -33 223 -215q0 -66 -82 -160l-94 -100q-27 -29 -200 -119t-230 -107z" />
<glyph unicode="&#xb4;" horiz-adv-x="903" d="M102 1489l523 276l176 -204l-549 -273z" />
<glyph unicode="&#xb5;" horiz-adv-x="1427" d="M154 1090q141 55 348 55q0 -82 -4 -250t-4 -195q0 -66 8 -428q33 -14 76 -14q225 0 301 123q51 82 51 281v28q0 20 -3 119.5t-3 134.5q0 49 14 172q39 -2 70 -2q59 0 94 6q61 10 172 51q2 -61 2 -129q0 -109 -6 -290q-8 -242 -8 -336v-144q0 -55 55 -88q12 -8 104 -39 q20 -8 66 -43l-240 -211q-49 25 -147 80q-80 47 -119 113q-227 -121 -422 -121q-29 0 -55 4l-2 -227q-137 -8 -340 -64v293q0 601 -8 1121z" />
<glyph unicode="&#xb6;" horiz-adv-x="1351" d="M102 1120q0 193 103 248q55 29 157 49q121 23 152 33q16 8 109 8q190 0 614 -24q12 -41 12 -52q-14 -367 -14 -737q0 -109 4 -797h-33q-133 0 -139 2h2q-35 -6 -63 -6q-16 0 -29 2q-4 10 -4 95v1316l-90 7q-6 -178 -6 -619q0 -109 4 -797h-35q-92 0 -96 2h2 q-47 -8 -86 -8q-27 0 -48 4q-4 10 -4 95q0 76 2 268l2 258q-258 51 -358 158q-61 66 -109.5 214t-48.5 281z" />
<glyph unicode="&#xb8;" horiz-adv-x="804" d="M102 -426l64 178q74 -25 156 -24q18 0 63 4q59 6 59 51q0 27 -18 33q-35 12 -86 12q-55 0 -129 -12l8 280h250l-6 -129q174 -31 217 -96q23 -33 22 -78q0 -88 -65 -153q-94 -96 -221 -103h-27q-103 0 -287 37z" />
<glyph unicode="&#xb9;" horiz-adv-x="464" d="M102 694v121q0 47 6.5 218t6.5 220v33q-2 57 -2 51q0 35 -11 138q168 8 260 43v-111q0 -31 -4 -134.5t-4 -133.5v-252q0 -123 2 -156q-57 10 -90 10q-60 0 -164 -47z" />
<glyph unicode="&#xba;" horiz-adv-x="872" d="M102 1114q0 59 36 151.5t73 118.5q121 84 262 84q53 0 124 -30.5t108 -69.5q25 -25 44 -84t21 -106v-9q0 -66 -27.5 -152.5t-60.5 -113.5q-41 -33 -123 -61q-88 -29 -151 -29q-57 0 -137.5 30.5t-103 63.5t-44 100.5t-21.5 106.5zM315 1118q0 -16 11.5 -57t17.5 -49 q14 -18 59 -19h9q27 0 75 17q35 12 40 18t17.5 55.5t12.5 83.5q0 33 -14 82q-8 10 -33 25.5t-35 15.5q-68 0 -129 -47q-6 -6 -18 -49q-13 -49 -13 -76z" />
<glyph unicode="&#xbb;" horiz-adv-x="1515" d="M102 205l197 -180l530 389l11 180l-545 432l-174 -192l395 -320zM676 205l196 -180l531 389l10 180l-545 432l-174 -192l396 -320z" />
<glyph unicode="&#xbc;" horiz-adv-x="1540" d="M102 633v127q0 51 6.5 230t6.5 231v34q-2 59 -2 54q0 37 -11 145q170 8 260 45v-117q0 -33 -4 -141t-4 -141v-264q0 -129 2 -164q-57 10 -90 10q-60 0 -164 -49zM111 -51q0 43 36 123l564 1259q6 12 69 164q66 -12 129 -37q45 -18 131 -18l-41 -90l-333 -719l-310 -723 q-10 -25 -36.5 -25t-96.5 43q-75 17 -112 23zM635 270l239 559l228 -81l-176 -408h198l2 569l242 39l2 -606l109 -2l-29 -219h-82l2 -250h-246v246h-407z" />
<glyph unicode="&#xbd;" horiz-adv-x="1564" d="M102 651v127q0 49 6.5 229.5t6.5 233.5v35q-2 61 -2 53q0 37 -11 146q152 0 260 45v-117q0 -33 -4 -143.5t-4 -141.5v-262q0 -129 2 -164q-57 10 -90 10q-60 0 -164 -51zM131 -49q0 39 37 121l563 1259q4 10 70 164q61 -10 129 -37q45 -18 131 -18l-41 -90l-334 -717 l-309 -725q-10 -25 -37 -25t-96 43zM760 86l389 285q49 35 51 114q0 10 -2 25q-8 12 -55 12q-16 0 -45 -2q-84 -6 -97 -12q-45 -23 -116 -131l-123 223q127 90 194 115q33 12 142 12h32q133 0 168 -10q113 -33 125 -232v-12q0 -84 -47 -178q-23 -45 -178 -152l264 -2 l-57 -213h-574z" />
<glyph unicode="&#xbe;" horiz-adv-x="1937" d="M102 623q84 16 234 92q125 63 168 98q80 63 80 92q0 41 -80 41q-59 0 -129 -18q-14 -4 -29 -4q-43 0 -74.5 28.5t-31.5 65.5q0 25 188 270h-272l32 211h574l43 -102l-209 -262q223 -33 223 -220q0 -63 -82 -163q-37 -45 -94 -105q-29 -29 -202 -122t-228 -109zM485 -51 q0 37 39 123l563 1259l68 164q63 -10 131 -37q43 -18 129 -18l-39 -90l-334 -719l-311 -723q-10 -25 -37 -25q-25 0 -94 43q-76 17 -115 23zM991 272l240 557l227 -81l-176 -408h199l2 569l241 39v-606l111 -2l-29 -219h-82l2 -250h-247l2 246h-408z" />
<glyph unicode="&#xbf;" horiz-adv-x="1261" d="M92 -8v12q0 57 35 178q45 152 92 187q29 23 299 94l31 4q8 10 8 51q0 45 -10 131l330 49q10 -147 10 -258q0 -137 -19 -159q-35 -37 -151 -70q-45 -12 -178 -43q-23 -6 -56 -18q-8 -4 -26.5 -53.5t-18.5 -69.5v-4q2 -25 18.5 -64t23.5 -43t71 -4h49q119 2 158 12 q61 16 276 86l146 -250q-127 -51 -373 -125q-100 -20 -238 -20q-205 0 -284 29q-55 20 -121 141t-72 207zM514 1049l154 38l159 -8l29 -123v-143l-151 -25h-173z" />
<glyph unicode="&#xc0;" horiz-adv-x="1654" d="M82 20q33 158 80 293l-60 4l9 285h149q72 190 184 402l224 419l329 17l234 -451q127 -250 201 -465l75 -219q47 -141 76 -285l-358 -53q-33 188 -76 342l-633 2q-41 -154 -74 -344zM403 1708l189 164l559 -221l-162 -158zM621 604q150 -2 288 -2h138q-125 289 -211 442 q-115 -194 -215 -440z" />
<glyph unicode="&#xc1;" horiz-adv-x="1654" d="M82 20q33 158 80 293l-60 4l9 285h149q72 190 184 402l224 419l329 17l234 -451q127 -250 201 -465l75 -219q47 -141 76 -285l-358 -53q-33 188 -76 342l-633 2q-41 -154 -74 -344zM412 1645l612 223l205 -164l-641 -219zM621 604q150 -2 288 -2h138q-125 289 -211 442 q-115 -194 -215 -440z" />
<glyph unicode="&#xc2;" horiz-adv-x="1654" d="M82 20q33 158 80 293l-60 4l9 285h149q72 190 184 402l224 419l329 17l234 -451q127 -250 201 -465l75 -219q47 -141 76 -285l-358 -53q-33 188 -76 342l-633 2q-41 -154 -74 -344zM389 1645l371 221l139 -2l346 -209l-155 -164l-263 168l-268 -166zM621 604 q150 -2 288 -2h138q-125 289 -211 442q-115 -194 -215 -440z" />
<glyph unicode="&#xc3;" horiz-adv-x="1654" d="M82 20q33 158 80 293l-60 4l9 285h149q72 190 184 402l224 419l329 17l234 -451q127 -250 201 -465l75 -219q47 -141 76 -285l-358 -53q-33 188 -76 342l-633 2q-41 -154 -74 -344zM379 1708q217 121 332 121q45 0 160 -54l116 -55q53 0 189 144l131 -178 q-211 -166 -312 -166q-45 0 -163.5 51t-131.5 51h-2q-94 -4 -209 -129zM621 604q150 -2 288 -2h138q-125 289 -211 442q-115 -194 -215 -440z" />
<glyph unicode="&#xc4;" horiz-adv-x="1654" d="M82 20q33 158 80 293l-60 4l9 285h149q72 190 184 402l224 419l329 17l234 -451q127 -250 201 -465l75 -219q47 -141 76 -285l-358 -53q-33 188 -76 342l-633 2q-41 -154 -74 -344zM449 1647v143l137 27h157l17 -263l-139 -38l-146 8zM621 604q150 -2 288 -2h138 q-125 289 -211 442q-115 -194 -215 -440zM889 1554l139 -38l146 8l26 123v143l-139 27h-156z" />
<glyph unicode="&#xc5;" horiz-adv-x="1654" d="M82 20q33 158 80 293l-60 4l9 285h149q72 190 184 402l189 354q-43 23 -62 47q-63 82 -63 164q0 51 35 125.5t75 103.5q92 63 246 64q135 0 219 -82q66 -63 66 -150v-8q0 -57 -27.5 -127t-62.5 -96l-29 -21l201 -389q127 -250 201 -465l75 -219q47 -141 76 -285l-358 -53 q-33 188 -76 342l-633 2q-41 -154 -74 -344zM621 604q150 -2 288 -2h138q-125 289 -211 442q-115 -194 -215 -440zM739 1573q0 -27 27 -62q10 -14 33 -14h4q115 0 115 121q0 55 -50 55q-129 0 -129 -100z" />
<glyph unicode="&#xc6;" horiz-adv-x="2283" d="M82 23q72 162 147 292l-53 7l78 280h143q113 182 283 404l319 413l127 17h-2l103 2h88l842 -2l4 -295l-772 4q-4 -158 -5 -387q256 0 687 8l-5 -297h-682l2 -199l795 19l-4 -297l-858 2q-23 -2 -92.5 -2t-188.5 2v313q-207 4 -442 4q-86 -166 -158 -342zM778 604 q174 -4 262 -4q0 10 4 363z" />
<glyph unicode="&#xc7;" horiz-adv-x="1447" d="M102 565q0 233 105.5 439t284.5 307q199 113 755 129l99 -283q-571 0 -674 -84q-86 -72 -146.5 -212t-60.5 -265q0 -348 409 -352h7q156 0 462 100l-10 -303q-254 -68 -471 -68q-354 0 -557 156.5t-203 435.5zM573 -406l64 152q74 -20 158 -20q31 0 61 2q59 4 59 43 q0 23 -16 28q-33 10 -88 10.5t-129 -10.5l8 236h252l-6 -109q238 -37 238 -147q0 -76 -64 -129q-96 -80 -223 -86h-31q-103 -1 -283 30z" />
<glyph unicode="&#xc8;" horiz-adv-x="1454" d="M92 471l8 291l113 -2l-2 522q0 20 -4 150q197 6 278 6l842 -2l4 -295l-772 4q-4 -156 -4 -387q256 0 686 8l-4 -295l-682 -2l2 -199l795 19l-4 -295l-859 2q-78 -8 -143 -8t-121 8q-16 35 -20 67v25q-2 14 0 35q4 45 4 65v281zM403 1708l189 164l559 -221l-162 -158z" />
<glyph unicode="&#xc9;" horiz-adv-x="1454" d="M92 471l8 291l113 -2l-2 522q0 20 -4 150q197 6 278 6l842 -2l4 -295l-772 4q-4 -156 -4 -387q256 0 686 8l-4 -295l-682 -2l2 -199l795 19l-4 -295l-859 2q-78 -8 -143 -8t-121 8q-16 35 -20 67v25q-2 14 0 35q4 45 4 65v281zM412 1645l612 223l205 -164l-641 -219z" />
<glyph unicode="&#xca;" horiz-adv-x="1454" d="M92 471l8 291l113 -2l-2 522q0 20 -4 150q197 6 278 6l842 -2l4 -295l-772 4q-4 -156 -4 -387q256 0 686 8l-4 -295l-682 -2l2 -199l795 19l-4 -295l-859 2q-78 -8 -143 -8t-121 8q-16 35 -20 67v25q-2 14 0 35q4 45 4 65v281zM348 1645l371 221l139 -2l346 -209 l-155 -164l-263 168l-268 -166z" />
<glyph unicode="&#xcb;" horiz-adv-x="1454" d="M92 471l8 291l113 -2l-2 522q0 20 -4 150q197 6 278 6l842 -2l4 -295l-772 4q-4 -156 -4 -387q256 0 686 8l-4 -295l-682 -2l2 -199l795 19l-4 -295l-859 2q-78 -8 -143 -8t-121 8q-16 35 -20 67v25q-2 14 0 35q4 45 4 65v281zM387 1647v143l137 27h158l16 -263l-139 -38 l-145 8zM827 1554l140 -38l145 8l27 123v143l-140 27h-155z" />
<glyph unicode="&#xcc;" horiz-adv-x="698" d="M-27 1708l189 164l559 -221l-162 -158zM162 1401q92 37 176 39q4 0 184 -2l-12 -570q-4 -186 -4 -364q0 -223 6 -434l2 -82h-108q-59 -1 -96.5 -1t-51.5 1l-92 6l-2 92q2 109 6 649v189v91q1 222 -8 386z" />
<glyph unicode="&#xcd;" horiz-adv-x="698" d="M-59 1645l612 223l205 -164l-641 -219zM172 1401q92 37 176 39q4 0 184 -2l-12 -570q-4 -186 -3 -364q0 -223 5 -434l2 -82h-108q-59 -1 -96 -1t-52 1l-92 6l-2 92q2 109 6 649v189q0 47 1 91q0 222 -9 386z" />
<glyph unicode="&#xce;" horiz-adv-x="858" d="M0 1645l371 221l139 -2l346 -209l-156 -164l-262 168l-268 -166zM258 86l8 649v189q0 47 1 91q0 222 -9 386q92 35 176 39q4 0 182 -2q-8 -457 -8 -1368v-82h-108q-59 -1 -96 -1t-52 1l-92 6z" />
<glyph unicode="&#xcf;" horiz-adv-x="751" d="M0 1647v143l137 27h158l16 -263l-139 -38l-145 8zM207 86l8 649v189v91q0 222 -8 386q92 35 176 39q4 0 184 -2q-15 -592 -14 -991q0 -217 4 -377l2 -82h-108q-60 -1 -98 -1t-52 1l-90 6zM440 1554l140 -38l145 8l27 123v143l-140 27h-155z" />
<glyph unicode="&#xd0;" horiz-adv-x="1722" d="M174 842l135 2l2 438q0 18 -4 121q111 41 287 45l270 4q326 0 488 -80q227 -111 237 -399q0 -12 -12 -264q-6 -131 -74 -275q-53 -115 -114 -182q-45 -51 -181.5 -117.5t-265.5 -103.5q-72 -20 -172 -25l-115 -6q-53 -2 -57 -4q-80 -8 -145 -8q-68 0 -121 8 q-23 47 -23 137v420h-131zM653 549l4 -275q188 8 357 97q80 43 94 59q106 129 137 311q10 61 10 189v6q-2 113 -43 161t-133 58t-254 10q-76 0 -166 -2v-61q2 -53 3 -84l2 -172l346 2l-4 -295z" />
<glyph unicode="&#xd1;" horiz-adv-x="1656" d="M133 1401q100 39 203 39q4 0 68.5 -2t101.5 -2l317 -506q180 -274 353 -486l2 207q1 51 0 107q0 248 -15 569q0 2 2 111q176 0 185 2h-4q88 -4 178 -39q-4 -100 -4 -119q2 -145 2 -393v-756q0 -90 -23 -137q-33 -4 -110 -4h-58q-111 4 -168 12l-145 131q-82 78 -133 141 q-178 219 -404 570l-2 -195q0 -20 2 -289l2 -292q0 -20 11 -82q-121 8 -166 8q-18 0 -25 -2q-31 -4 -63 -4q-41 0 -82 6q-23 47 -23 137l2 1149q0 21 -4 119zM379 1708q217 121 332 121q45 0 160 -54l116 -55q53 0 189 144l131 -178q-211 -166 -312 -166q-45 0 -163.5 51 t-131.5 51h-2q-94 -4 -209 -129z" />
<glyph unicode="&#xd2;" d="M92 645q0 133 43 285q55 197 152 291q102 104 323 170q188 57 334 57q98 0 242 -53q172 -63 258 -158q59 -66 104 -188.5t45 -212.5q0 -150 -49 -318q-57 -201 -160.5 -312.5t-296.5 -180.5q-174 -61 -321 -62q-123 0 -264.5 60.5t-227.5 152.5q-78 82 -130 220t-52 249z M436 655q0 -57 32 -145t72 -134t112.5 -81t127.5 -35q59 0 155.5 29.5t141.5 64.5q84 66 131 219q37 121 37 232q0 49 -17.5 119.5t-39.5 105.5q-31 45 -106.5 84t-129.5 39q-90 0 -221 -43q-137 -43 -183 -92t-79 -158t-33 -205zM506 1708l188 164l559 -221l-161 -158z" />
<glyph unicode="&#xd3;" d="M92 645q0 133 43 285q55 197 152 291q102 104 323 170q188 57 334 57q98 0 242 -53q172 -63 258 -158q59 -66 104 -188.5t45 -212.5q0 -150 -49 -318q-57 -201 -160.5 -312.5t-296.5 -180.5q-174 -61 -321 -62q-123 0 -264.5 60.5t-227.5 152.5q-78 82 -130 220t-52 249z M436 655q0 -57 32 -145t72 -134t112.5 -81t127.5 -35q59 0 155.5 29.5t141.5 64.5q84 66 131 219q37 121 37 232q0 49 -17.5 119.5t-39.5 105.5q-31 45 -106.5 84t-129.5 39q-90 0 -221 -43q-137 -43 -183 -92t-79 -158t-33 -205zM494 1645l612 223l205 -164l-641 -219z" />
<glyph unicode="&#xd4;" d="M92 645q0 133 43 285q55 197 152 291q102 104 323 170q188 57 334 57q98 0 242 -53q172 -63 258 -158q59 -66 104 -188.5t45 -212.5q0 -150 -49 -318q-57 -201 -160.5 -312.5t-296.5 -180.5q-174 -61 -321 -62q-123 0 -264.5 60.5t-227.5 152.5q-78 82 -130 220t-52 249z M436 655q0 -57 32 -145t72 -134t112.5 -81t127.5 -35q59 0 155.5 29.5t141.5 64.5q84 66 131 219q37 121 37 232q0 49 -17.5 119.5t-39.5 105.5q-31 45 -106.5 84t-129.5 39q-90 0 -221 -43q-137 -43 -183 -92t-79 -158t-33 -205zM451 1645l370 221l140 -2l346 -209 l-156 -164l-262 168l-268 -166z" />
<glyph unicode="&#xd5;" d="M92 645q0 133 43 285q55 197 152 291q102 104 323 170q188 57 334 57q98 0 242 -53q172 -63 258 -158q59 -66 104 -188.5t45 -212.5q0 -150 -49 -318q-57 -201 -160.5 -312.5t-296.5 -180.5q-174 -61 -321 -62q-123 0 -264.5 60.5t-227.5 152.5q-78 82 -130 220t-52 249z M379 1708q217 121 332 121q45 0 160 -54l116 -55q53 0 189 144l131 -178q-211 -166 -312 -166q-45 0 -163.5 51t-131.5 51h-2q-94 -4 -209 -129zM436 655q0 -57 32 -145t72 -134t112.5 -81t127.5 -35q59 0 155.5 29.5t141.5 64.5q84 66 131 219q37 121 37 232 q0 49 -17.5 119.5t-39.5 105.5q-31 45 -106.5 84t-129.5 39q-90 0 -221 -43q-137 -43 -183 -92t-79 -158t-33 -205z" />
<glyph unicode="&#xd6;" d="M92 645q0 133 43 285q55 197 152 291q102 104 323 170q188 57 334 57q98 0 242 -53q172 -63 258 -158q59 -66 104 -188.5t45 -212.5q0 -150 -49 -318q-57 -201 -160.5 -312.5t-296.5 -180.5q-174 -61 -321 -62q-123 0 -264.5 60.5t-227.5 152.5q-78 82 -130 220t-52 249z M436 655q0 -57 32 -145t72 -134t112.5 -81t127.5 -35q59 0 155.5 29.5t141.5 64.5q84 66 131 219q37 121 37 232q0 49 -17.5 119.5t-39.5 105.5q-31 45 -106.5 84t-129.5 39q-90 0 -221 -43q-137 -43 -183 -92t-79 -158t-33 -205zM489 1647v143l138 27h157l17 -263l-139 -38 l-146 8zM930 1554l139 -38l145 8l27 123v143l-139 27h-156z" />
<glyph unicode="&#xd7;" horiz-adv-x="913" d="M102 571l172 146l193 -180l186 159l158 -153l-186 -152l166 -155l-179 -144l-159 150l-193 -148l-149 152l182 149z" />
<glyph unicode="&#xd8;" d="M92 645q0 135 43 289q55 199 150 295q102 102 325 170q188 57 334 57q35 0 82 -8l55 102q100 -14 183 -41q49 -16 209 -16l-80 -147l-23 -37q123 -88 184 -271q39 -117 39 -200q0 -150 -49 -320q-59 -203 -160.5 -316.5t-296.5 -183.5q-168 -61 -321 -61q-63 0 -139 18 q-16 -43 -58 -96q-12 -8 -32 -8q-35 0 -138 45q-29 12 -153 43v4q0 90 57 180q-90 86 -150.5 230.5t-60.5 271.5zM436 655q0 -74 45 -182l381 676q-236 -41 -313 -125q-47 -51 -80 -162t-33 -207zM778 256q59 0 156.5 30.5t142.5 65.5q86 68 131 221q37 123 37 234t-47 209 l-213 -375z" />
<glyph unicode="&#xd9;" horiz-adv-x="1542" d="M102 1411l361 64q-12 -301 -12 -533q0 -35 2 -86v-80q0 -117 10 -399q8 -135 61 -135h4q8 0 263 63q145 35 270 70l-25 1059h353l10 -1418l-344 -53v103l-469 -119q-72 -16 -131 -17q-231 0 -301 277q-29 119 -39 614q-9 553 -13 590zM362 1708l189 164l559 -221 l-162 -158z" />
<glyph unicode="&#xda;" horiz-adv-x="1542" d="M102 1411l361 64q-12 -301 -12 -533q0 -35 2 -86v-80q0 -117 10 -399q8 -135 61 -135h4q8 0 263 63q145 35 270 70l-25 1059h353l10 -1418l-344 -53v103l-469 -119q-72 -16 -131 -17q-231 0 -301 277q-29 119 -39 614q-9 553 -13 590zM391 1665l613 223l204 -164 l-641 -219z" />
<glyph unicode="&#xdb;" horiz-adv-x="1542" d="M102 1411l361 64q-12 -301 -12 -533q0 -35 2 -86v-80q0 -117 10 -399q8 -135 61 -135h4q8 0 263 63q145 35 270 70l-25 1059h353l10 -1418l-344 -53v103l-469 -119q-72 -16 -131 -17q-231 0 -301 277q-29 119 -39 614q-9 553 -13 590zM348 1645l371 221l139 -2l346 -209 l-155 -164l-263 168l-268 -166z" />
<glyph unicode="&#xdc;" horiz-adv-x="1542" d="M102 1411l361 64q-12 -301 -12 -533q0 -35 2 -86v-80q0 -117 10 -399q8 -135 61 -135h4q8 0 263 63q145 35 270 70l-25 1059h353l10 -1418l-344 -53v103l-469 -119q-72 -16 -131 -17q-231 0 -301 277q-29 119 -39 614q-9 553 -13 590zM387 1647v143l137 27h158l16 -263 l-139 -38l-145 8zM827 1554l140 -38l145 8l27 123v143l-140 27h-155z" />
<glyph unicode="&#xdd;" horiz-adv-x="1511" d="M102 1389l379 57q14 -184 97 -379q47 -111 147 -244q88 -117 100 -116q25 0 93.5 124.5t113.5 245.5q74 203 101 365l383 -47l-164 -424q-61 -156 -150 -275q-63 -88 -201 -229l-2 -463l-346 -10l-2 465q-240 211 -379 477q-98 185 -170 453zM420 1645l522 276l176 -205 l-549 -272z" />
<glyph unicode="&#xde;" horiz-adv-x="1378" d="M154 1376q141 55 350 56l-4 -211q184 72 309 71q297 0 391 -108q76 -88 76 -355q0 -344 -221 -497q-176 -123 -551 -152l-2 -172q-137 -10 -342 -65q2 106 2 301q0 391 -8 1132zM494 840q0 -88 8 -371q305 37 397 141q16 18 32.5 86t16.5 129q0 98 -35 183q-8 -2 -34 -2 h-113q-31 0 -270 -88q-2 -43 -2 -78z" />
<glyph unicode="&#xdf;" horiz-adv-x="1603" d="M174 1401q98 37 180 37q14 0 58.5 -2t76.5 -2q18 0 129 4q102 4 156 4q303 0 436 -88q123 -80 123 -248q0 -221 -256 -336l-65 -25q-51 -20 -51 -34.5t53 -28.5q12 -4 196 -47q270 -63 271 -250q0 -90 -70 -188.5t-168 -143.5q-178 -82 -407 -82q-94 0 -170 13l-80 278 q150 -16 231 -16q154 0 264 49q59 27 60 63q0 6 -17 7h-14q-10 0 -20 2q-51 10 -187 43q-295 82 -295 321q0 113 117 193q41 29 219 108q45 20 45 66q0 23 -14 37q-20 20 -221 20q-94 0 -228 -4q-6 -209 -6 -500q0 -100 4 -667q-84 12 -108 12l-109 -6q-31 -2 -39 -2 q-39 0 -69 6q-23 47 -23 137l2 1151q0 21 -4 119z" />
<glyph unicode="&#xe0;" horiz-adv-x="1269" d="M82 324q0 100 63 198q74 113 195 158q98 35 442 92q4 23 15 59q8 29 8 37q0 10 -10 9q-74 -8 -187 -25q-98 -18 -401 -111l-103 254q88 33 170 58q195 61 320 77l123 19q49 6 90 6q221 0 280 -227q31 -117 31 -467t17 -449l-353 -63v55q-137 -31 -233 -31q-328 0 -399 54 q-49 35 -62 139q-6 41 -6 158zM260 1462l176 205l522 -276l-151 -201zM414 319q-5 -30 -6 -49q0 -26 10 -32q-8 6 114 6q96 0 259 39q0 111 -3 213q-328 -31 -360 -99q-4 -8 -14 -78z" />
<glyph unicode="&#xe1;" horiz-adv-x="1269" d="M82 324q0 203 260 297h1q18 0 141 -143q114 -132 180 -132q8 0 16 2q98 29 98 404q0 121 -24 120q-152 -16 -547 -135l-105 258q268 100 492 135l123 19q39 6 90 6q221 0 280 -227q31 -119 31 -469v-43q-2 -39 -2 -58v-108q0 -125 21 -238l-355 -63v55q-137 -31 -233 -31 q-325 0 -399 52q-51 37 -64 139q-4 31 -4 160zM276 1380l525 267l178 -197l-553 -262zM403 272q0 -23 13 -30l98 4q133 6 277 41q0 80 -3 166q-332 -37 -360 -97q-25 -51 -25 -84z" />
<glyph unicode="&#xe2;" horiz-adv-x="1269" d="M82 324q0 100 63 198q74 113 195 158q98 35 442 92q4 23 15 59q8 29 8 37q0 10 -10 9q-74 -8 -187 -25q-98 -18 -401 -111l-103 254q88 33 170 58q195 61 320 77l123 19q49 6 90 6q221 0 280 -227q31 -117 31 -467t17 -449l-353 -63v55q-137 -31 -233 -31q-328 0 -399 54 q-49 35 -62 139q-6 41 -6 158zM186 1362l373 250l139 -2l346 -236l-155 -186l-262 190l-269 -186zM414 319q-5 -30 -6 -49q0 -26 10 -32q-8 6 114 6q96 0 259 39q0 111 -3 213q-328 -31 -360 -99q-4 -8 -14 -78z" />
<glyph unicode="&#xe3;" horiz-adv-x="1269" d="M82 324q0 203 260 297h1q18 0 141 -143q114 -132 180 -132q8 0 16 2q98 29 98 404q0 121 -24 120q-152 -16 -547 -135l-105 258q268 100 492 135l123 19q39 6 90 6q221 0 280 -227q31 -119 31 -469v-43q-2 -39 -2 -58v-108q0 -125 21 -238l-355 -63v55q-137 -31 -233 -31 q-326 0 -400 52q-51 37 -63 139q-4 31 -4 160zM152 1421q211 139 321 140q43 0 156 -64l112 -63q51 0 183 170l127 -209q-205 -195 -303 -195q-43 0 -159 60.5t-128 60.5q-90 -4 -203 -152zM403 272q0 -23 13 -30l98 4q133 6 277 41q0 80 -3 166q-332 -37 -360 -97 q-25 -51 -25 -84z" />
<glyph unicode="&#xe4;" horiz-adv-x="1269" d="M82 324q0 100 63 198q74 113 195 158q98 35 442 92q4 23 15 59q8 29 8 37q0 10 -10 9q-74 -8 -187 -25q-98 -18 -401 -111l-103 254q88 33 170 58q195 61 320 77l123 19q49 6 90 6q221 0 280 -227q31 -117 31 -467t17 -449l-353 -63v55q-137 -31 -233 -31q-328 0 -399 54 q-49 35 -62 139q-6 41 -6 158zM233 1393v143l138 27h157l17 -263l-139 -38l-146 8zM414 319q-5 -30 -6 -49q0 -26 10 -32q-8 6 114 6q96 0 259 39q0 111 -3 213q-328 -31 -360 -99q-4 -8 -14 -78zM674 1300l139 -38l145 8l27 123v143l-139 27h-156z" />
<glyph unicode="&#xe5;" horiz-adv-x="1269" d="M82 324q0 100 63 198q74 113 195 158q98 35 442 92q4 23 15 59q8 29 8 37q0 10 -10 9q-74 -8 -187 -25q-98 -18 -401 -111l-103 254q88 33 170 58q195 61 320 77l123 19q49 6 90 6q221 0 280 -227q31 -117 31 -467t17 -449l-353 -63v55q-137 -31 -233 -31q-328 0 -399 54 q-49 35 -62 139q-6 41 -6 158zM283 1352q0 61 34.5 142t77.5 114q92 70 248 69q119 0 200 -71.5t87 -184.5v-8q0 -68 -29 -144.5t-63 -107.5q-45 -39 -119 -67q-80 -31 -141 -31q-57 0 -129 33.5t-101 74.5q-65 95 -65 181zM414 319q-5 -30 -6 -49q0 -26 10 -32q-8 6 114 6 q96 0 259 39q0 111 -3 213q-328 -31 -360 -99q-4 -8 -14 -78zM516 1356q0 -29 27 -68q12 -16 37 -16q117 2 116 135q0 61 -51 61q-68 0 -94 -18q-35 -26 -35 -94z" />
<glyph unicode="&#xe6;" horiz-adv-x="2023" d="M82 326q0 111 72.5 213t187.5 143q96 35 434 90q-2 35 -4 90q-16 4 -33 10q-70 -10 -133 -22q-78 -16 -399 -111l-105 256q283 102 492 135l123 19q51 8 104 8q152 0 226 -90q199 80 352 82h7q80 0 196 -41q115 -39 172 -86q43 -33 93 -157t54 -195v-31q0 -76 -14 -188 l-746 -89q16 -63 47 -79q14 -6 152 -25q37 -6 51 -6q129 0 399 94l-10 -307q-227 -63 -397 -64h-72q-203 0 -346 80q-63 -23 -106 -24q-203 -55 -330 -56q-326 0 -399 52q-51 37 -64 139q-4 31 -4 160zM403 285q0 -33 13 -41l98 4q133 6 277 41q0 106 -3 205 q-272 -25 -346 -84q-39 -31 -39 -125zM1139 635l452 57q-18 63 -53 111q-8 12 -54 32.5t-67 20.5h-4q-63 -4 -143 -25.5t-102.5 -41t-28.5 -154.5z" />
<glyph unicode="&#xe7;" horiz-adv-x="1243" d="M72 457q0 188 84 349t227 241q154 86 627 102l100 -287q-80 2 -149 2q-209 0 -308 -20q-90 -18 -129 -64q-18 -23 -55 -112q-43 -102 -43 -187q0 -229 248 -229q147 0 422 94l-11 -307q-215 -59 -397 -59q-285 0 -450.5 127t-165.5 350zM430 -422l64 164q76 -23 159 -23 q35 0 60 2q59 4 59 48q0 25 -18 30q-29 10 -86 11h-18q-53 0 -111 -11l8 256h250l-6 -118q240 -39 239 -160q0 -80 -65 -139q-96 -88 -222 -95h-28q-101 0 -285 35z" />
<glyph unicode="&#xe8;" horiz-adv-x="1347" d="M72 522q0 133 34 256q47 172 148 246q53 39 197.5 80t240.5 43h8q80 0 195 -40t172 -87q41 -33 92 -157t55 -195v-27q0 -63 -14 -170l-760 -88q25 -68 68 -94q27 -16 145 -31q29 -6 52 -6q129 0 399 94l-10 -307q-227 -63 -398 -64h-71q-264 0 -387 103q-74 63 -123 213 q-43 135 -43 231zM301 1421l176 205l522 -276l-151 -201zM422 655l463 56q-8 33 -54 92q-10 12 -57 32.5t-67 20.5q-63 -2 -142.5 -24.5t-101.5 -40.5q-29 -25 -41 -136z" />
<glyph unicode="&#xe9;" horiz-adv-x="1347" d="M72 522q0 133 34 256q47 172 148 246q53 39 197.5 80t240.5 43h8q80 0 195 -40t172 -87q41 -33 92 -157t55 -195v-27q0 -63 -14 -170l-760 -88q25 -68 68 -94q27 -16 145 -31q29 -6 52 -6q129 0 399 94l-10 -307q-227 -63 -398 -64h-71q-264 0 -387 103q-74 63 -123 213 q-43 135 -43 231zM317 1380l525 267l178 -197l-553 -262zM422 655l463 56q-8 33 -54 92q-10 12 -57 32.5t-67 20.5q-63 -2 -142.5 -24.5t-101.5 -40.5q-29 -25 -41 -136z" />
<glyph unicode="&#xea;" horiz-adv-x="1347" d="M72 522q0 133 34 256q47 172 148 246q53 39 197.5 80t240.5 43h8q80 0 195 -40t172 -87q41 -33 92 -157t55 -195v-27q0 -63 -14 -170l-760 -88q25 -68 68 -94q27 -16 145 -31q29 -6 52 -6q129 0 399 94l-10 -307q-227 -63 -398 -64h-71q-264 0 -387 103q-74 63 -123 213 q-43 135 -43 231zM289 1341l373 250l139 -2l346 -235l-156 -187l-262 191l-268 -187zM422 655l463 56q-8 33 -54 92q-10 12 -57 32.5t-67 20.5q-63 -2 -142.5 -24.5t-101.5 -40.5q-29 -25 -41 -136z" />
<glyph unicode="&#xeb;" horiz-adv-x="1347" d="M72 522q0 133 34 256q47 172 148 246q53 39 197.5 80t240.5 43h8q80 0 195 -40t172 -87q41 -33 92 -157t55 -195v-27q0 -63 -14 -170l-760 -88q25 -68 68 -94q27 -16 145 -31q29 -6 52 -6q129 0 399 94l-10 -307q-227 -63 -398 -64h-71q-264 0 -387 103q-74 63 -123 213 q-43 135 -43 231zM336 1393v143l137 27h158l16 -263l-139 -38l-146 8zM422 655l463 56q-8 33 -54 92q-10 12 -57 32.5t-67 20.5q-63 -2 -142.5 -24.5t-101.5 -40.5q-29 -25 -41 -136zM776 1300l139 -38l146 8l26 123v143l-139 27h-155z" />
<glyph unicode="&#xec;" horiz-adv-x="698" d="M0 1462l176 205l522 -276l-151 -201zM172 80q-1 42 -1 85.5t1 88.5q4 125 4 305v127l-4 430q209 2 354 58l-2 -142q-3 -209 -2 -332v-102l8 -401v-25q0 -53 7 -180q-68 12 -119 12q-59 0 -242 -41z" />
<glyph unicode="&#xed;" horiz-adv-x="702" d="M16 1380l525 267l178 -197l-553 -262zM190 80q-2 41 -2 84.5t2 89.5q4 133 5 305v127l-5 430q209 2 355 58l-2 -142q-3 -209 -3 -332q0 -62 1 -102l8 -401v-25q0 -53 6 -180q-68 12 -119 12q-59 0 -241 -41z" />
<glyph unicode="&#xee;" horiz-adv-x="858" d="M0 1341l373 250l139 -2l346 -235l-156 -187l-262 191l-268 -187zM246 80q-1 42 -1 85.5t1 88.5q4 125 4 305v127l-4 430q209 2 354 58l-2 -142q-3 -209 -3 -332q0 -62 1 -102l8 -401v-25q0 -53 6 -180q-68 12 -118 12q-59 0 -242 -41z" />
<glyph unicode="&#xef;" horiz-adv-x="710" d="M-20 1393v143l137 27h157l17 -263l-139 -38l-146 8zM170 80q-1 42 -1 85.5t1 88.5q4 125 4 305v127l-4 430q209 2 354 58l-2 -142q-3 -209 -2 -332v-102l8 -401v-25q0 -53 7 -180q-68 12 -119 12q-59 0 -242 -41zM420 1300l139 -38l146 8l26 123v143l-139 27h-156z" />
<glyph unicode="&#xf0;" horiz-adv-x="1216" d="M102 971l207 141l-139 135l168 248l240 -211l198 135l166 -219l-168 -117l164 -192q152 -240 166 -369q12 -109 12 -127q0 -190 -138 -311t-349 -121q-215 0 -366.5 109.5t-156.5 277.5v8q0 242 469 461l-77 86l-226 -145zM453 340q6 -74 108 -100q29 -6 41 -7 q61 0 115 50q61 53 61 133q0 92 -67 202q-109 -35 -195 -131q-63 -72 -63 -135v-12z" />
<glyph unicode="&#xf1;" horiz-adv-x="1402" d="M154 1090l338 53v-74l272 64q119 27 182 26q205 0 264 -231q31 -119 31 -469v-101l-2 -108q0 -125 21 -238l-359 -65q10 262 10 448v101q0 147 -10 284q-6 92 -43 92h-4q-82 -8 -367 -90l19 -786h-346zM233 1421q211 139 322 140q43 0 156 -64l112 -63q51 0 183 170 l127 -209q-205 -195 -304 -195q-43 0 -158.5 60.5t-127.5 60.5q-90 -4 -203 -152z" />
<glyph unicode="&#xf2;" horiz-adv-x="1380" d="M72 522q0 111 67.5 271.5t142 218t213 96.5t273.5 39q111 0 230.5 -49t187.5 -123q119 -127 123 -309v-19q0 -125 -49 -266q-53 -154 -121 -211q-76 -66 -209 -125q-166 -74 -299 -74q-106 0 -245.5 65.5t-187.5 137.5t-87 176t-39 172zM342 1421l176 205l522 -276 l-151 -201zM416 528q0 -86 73 -192q16 -23 61.5 -47.5t82.5 -24.5h4q68 4 139.5 34t104.5 64q27 29 54.5 117t27.5 162q0 94 -53.5 154.5t-135.5 60.5q-172 0 -268 -78q-35 -29 -62.5 -104.5t-27.5 -145.5z" />
<glyph unicode="&#xf3;" horiz-adv-x="1380" d="M72 522q0 111 67.5 271.5t142 218t213 96.5t273.5 39q111 0 230.5 -49t187.5 -123q119 -127 123 -309v-19q0 -125 -49 -266q-53 -154 -121 -211q-76 -66 -209 -125q-166 -74 -299 -74q-106 0 -245.5 65.5t-187.5 137.5t-87 176t-39 172zM338 1380l524 267l178 -197 l-553 -262zM416 528q0 -86 73 -192q16 -23 61.5 -47.5t82.5 -24.5h4q68 4 139.5 34t104.5 64q27 29 54.5 117t27.5 162q0 94 -53.5 154.5t-135.5 60.5q-172 0 -268 -78q-35 -29 -62.5 -104.5t-27.5 -145.5z" />
<glyph unicode="&#xf4;" horiz-adv-x="1380" d="M72 522q0 111 67.5 271.5t142 218t213 96.5t273.5 39q111 0 230.5 -49t187.5 -123q119 -127 123 -309v-19q0 -125 -49 -266q-53 -154 -121 -211q-76 -66 -209 -125q-166 -74 -299 -74q-106 0 -245.5 65.5t-187.5 137.5t-87 176t-39 172zM268 1341l373 250l139 -2 l346 -235l-155 -187l-262 191l-269 -187zM416 528q0 -86 73 -192q16 -23 61.5 -47.5t82.5 -24.5h4q68 4 139.5 34t104.5 64q27 29 54.5 117t27.5 162q0 94 -53.5 154.5t-135.5 60.5q-172 0 -268 -78q-35 -29 -62.5 -104.5t-27.5 -145.5z" />
<glyph unicode="&#xf5;" horiz-adv-x="1380" d="M72 522q0 111 67.5 271.5t142 218t213 96.5t273.5 39q111 0 230.5 -49t187.5 -123q119 -127 123 -309v-19q0 -125 -49 -266q-53 -154 -121 -211q-76 -66 -209 -125q-166 -74 -299 -74q-106 0 -245.5 65.5t-187.5 137.5t-87 176t-39 172zM233 1421q211 139 322 140 q43 0 156 -64l112 -63q51 0 183 170l127 -209q-205 -195 -304 -195q-43 0 -158.5 60.5t-127.5 60.5q-90 -4 -203 -152zM416 528q0 -86 73 -192q16 -23 61.5 -47.5t82.5 -24.5h4q68 4 139.5 34t104.5 64q27 29 54.5 117t27.5 162q0 94 -53.5 154.5t-135.5 60.5 q-172 0 -268 -78q-35 -29 -62.5 -104.5t-27.5 -145.5z" />
<glyph unicode="&#xf6;" horiz-adv-x="1380" d="M72 522q0 111 67.5 271.5t142 218t213 96.5t273.5 39q111 0 230.5 -49t187.5 -123q119 -127 123 -309v-19q0 -125 -49 -266q-53 -154 -121 -211q-76 -66 -209 -125q-166 -74 -299 -74q-106 0 -245.5 65.5t-187.5 137.5t-87 176t-39 172zM315 1393v143l138 27h157l17 -263 l-140 -38l-145 8zM416 528q0 -86 73 -192q16 -23 61.5 -47.5t82.5 -24.5h4q68 4 139.5 34t104.5 64q27 29 54.5 117t27.5 162q0 94 -53.5 154.5t-135.5 60.5q-172 0 -268 -78q-35 -29 -62.5 -104.5t-27.5 -145.5zM756 1300l139 -38l145 8l27 123v143l-139 27h-156z" />
<glyph unicode="&#xf7;" horiz-adv-x="937" d="M72 543l794 4l-4 -283h-786zM319 55v131l121 25h140l14 -242l-123 -37l-129 9zM319 711v131l121 24h140l14 -241l-123 -37l-129 8z" />
<glyph unicode="&#xf8;" horiz-adv-x="1380" d="M72 520q0 100 61 260q63 168 148 240q76 66 237 108q131 35 250 35q25 0 47 -2q16 31 72 148q63 -10 155 -37q51 -14 187 -17q-61 -131 -109 -215q188 -141 189 -385q0 -106 -43 -252q-51 -174 -138 -256q-66 -63 -221 -126.5t-276 -63.5q-25 0 -53 2q-29 -61 -82 -164 q-82 49 -142.5 67.5t-177.5 31.5l103 192q-55 37 -82 76q-47 68 -86 177t-39 181zM416 528q0 -41 28 -110l222 442q-250 -41 -250 -332zM731 272q104 33 148 82q33 37 58.5 128t25.5 161q0 37 -11 72z" />
<glyph unicode="&#xf9;" horiz-adv-x="1361" d="M102 1094l359 65q-12 -270 -12 -459v-90q2 -147 12 -284q6 -92 43 -93h4q78 8 182 37l184 54l-18 786h344l8 -1094l-338 -53v74l-272 -62q-121 -29 -182 -28q-205 0 -264 231q-31 119 -31 469v101l2 108q-1 125 -21 238zM301 1421l176 205l522 -276l-151 -201z" />
<glyph unicode="&#xfa;" horiz-adv-x="1361" d="M102 1094l359 65q-12 -270 -12 -459v-90q2 -147 12 -284q6 -92 43 -93h4q78 8 182 37l184 54l-18 786h344l8 -1094l-338 -53v74l-272 -62q-121 -29 -182 -28q-205 0 -264 231q-31 119 -31 469v101l2 108q-1 125 -21 238zM317 1380l525 267l178 -197l-553 -262z" />
<glyph unicode="&#xfb;" horiz-adv-x="1361" d="M102 1094l359 65q-12 -270 -12 -459v-90q2 -147 12 -284q6 -92 43 -93h4q78 8 182 37l184 54l-18 786h344l8 -1094l-338 -53v74l-272 -62q-121 -29 -182 -28q-205 0 -264 231q-31 119 -31 469v101l2 108q-1 125 -21 238zM227 1362l373 250l139 -2l346 -236l-155 -186 l-262 190l-269 -186z" />
<glyph unicode="&#xfc;" horiz-adv-x="1273" d="M102 1094l359 65q-12 -270 -12 -459v-90q2 -147 12 -284q6 -92 43 -93h4q78 8 182 37l184 54l-18 786h344l8 -1094l-338 -53v74l-272 -62q-121 -29 -182 -28q-205 0 -264 231q-31 119 -31 469v101l2 108q-1 125 -21 238zM274 1393v143l138 27h157l17 -263l-140 -38 l-145 8zM715 1300l139 -38l145 8l27 123v143l-139 27h-156z" />
<glyph unicode="&#xfd;" horiz-adv-x="1353" d="M111 1077l350 66q106 -522 172 -637q45 -78 145 -193q88 176 133 360.5t70 471.5l360 -47q-57 -373 -131.5 -597.5t-232.5 -490.5q-72 -121 -152 -221l-211 -242l-303 140q213 221 295 338q-188 199 -266 315q-92 139 -229 737zM344 1380l526 267l179 -197l-553 -262z " />
<glyph unicode="&#xfe;" horiz-adv-x="1378" d="M154 1294q141 55 348 56l-2 -250q184 72 309 71q307 0 399 -120q68 -88 68 -367q0 -377 -197 -537q-170 -139 -575 -170l-2 -174q-137 -10 -342 -65q2 68 2 115q0 29 -2 71v27q0 63 3 286.5t3 286.5q0 80 -6 376t-6 394zM494 715q0 -43 6 -447q268 25 358 110t90 304 q0 139 -22 166q-27 35 -160 35q-31 0 -270 -88z" />
<glyph unicode="&#xff;" horiz-adv-x="1353" d="M61 1077l351 66q102 -514 172 -637q45 -78 145 -193q88 174 133 358.5t72 473.5l358 -47q-55 -371 -131 -596.5t-233 -491.5q-70 -119 -152 -221q-39 -49 -209 -242l-303 140q211 221 293 338q-188 199 -266 315q-93 139 -230 737zM295 1393v143l137 27h158l16 -263 l-139 -38l-145 8zM735 1300l139 -38l146 8l27 123v143l-140 27h-155z" />
<glyph unicode="&#x152;" horiz-adv-x="2209" d="M92 647q0 131 43 283q57 203 150 291q109 102 368 163q219 51 379 52q35 8 74 10l31 -2q66 -4 104 -6l840 -2l6 -295l-772 4q-4 -152 -4 -387q254 0 686 8l-6 -295l-680 -2l2 -199l794 19l-6 -297l-856 4q-84 -10 -219 -10q-150 0 -348 41q-244 51 -359 149 q-76 63 -155 225q-72 146 -72 246zM436 655q0 -35 46 -126t98 -152q59 -70 381 -96q2 61 4 188l-117 2l8 291l113 -2l-2 385q-344 -47 -418 -127q-47 -49 -80 -158t-33 -205z" />
<glyph unicode="&#x153;" horiz-adv-x="2238" d="M102 522q0 111 68 272.5t142.5 218t212 95.5t274.5 39q203 0 370 -129q74 51 228 92q133 35 217 37h8q80 0 194.5 -40t172.5 -87q41 -33 92 -157t55 -195v-31q0 -74 -14 -186l-760 -91q23 -61 68 -81q8 -2 145 -21q41 -6 51 -6q129 0 399 94l-10 -307q-227 -63 -397 -64 h-72q-332 0 -432 154q-236 -158 -452 -158q-106 0 -246 65.5t-189 137.5t-87 176t-38 172zM446 528q0 -86 74 -192q16 -23 61.5 -47.5t82.5 -24.5h4q68 4 139.5 34t103.5 64q27 29 54.5 117t27.5 162q0 94 -53 154.5t-135 60.5q-172 0 -268 -78q-33 -29 -62 -104.5 t-29 -145.5zM1343 635l463 55q-18 66 -53 113q-10 12 -57 32.5t-68 20.5q-63 -2 -143 -24.5t-103 -42t-39 -154.5z" />
<glyph unicode="&#x178;" horiz-adv-x="1511" d="M51 1389l379 57q14 -184 96 -379q47 -111 148 -244q88 -117 100 -116q25 0 93.5 124.5t113.5 245.5q74 203 100 365l383 -47l-164 -424q-61 -156 -149 -275q-63 -88 -201 -229l-2 -463l-346 -10l-2 465q-240 211 -379 477q-98 185 -170 453zM367 1647v143l137 27h158 l16 -263l-139 -38l-146 8zM807 1554l139 -38l146 8l26 123v143l-139 27h-156z" />
<glyph unicode="&#x2c6;" horiz-adv-x="1062" d="M102 1425l373 250l139 -2l347 -235l-156 -187l-262 191l-269 -187z" />
<glyph unicode="&#x2dc;" horiz-adv-x="1093" d="M102 1513q209 156 318 156q45 0 155 -71l111 -70q51 0 180 188l125 -233q-201 -215 -299 -215q-43 0 -155.5 66.5t-126.5 66.5q-92 -4 -201 -168z" />
<glyph unicode="&#x2013;" horiz-adv-x="1148" d="M76 748l1001 4l-14 -283h-983z" />
<glyph unicode="&#x2014;" horiz-adv-x="1353" d="M76 748l1206 4l-14 -283h-1188z" />
<glyph unicode="&#x2018;" horiz-adv-x="534" d="M72 948l75 299l123 244l193 -145l-41 -172l-39 -232z" />
<glyph unicode="&#x2019;" horiz-adv-x="534" d="M72 1079l41 172l41 232l309 -8l-76 -299l-123 -244z" />
<glyph unicode="&#x201a;" horiz-adv-x="534" d="M72 -88l41 172l41 231l309 -8l-76 -299l-123 -244z" />
<glyph unicode="&#x201c;" horiz-adv-x="964" d="M72 948l75 299l123 244l193 -145l-41 -172l-39 -232zM481 948l76 299l123 244l192 -145l-41 -172l-38 -232z" />
<glyph unicode="&#x201d;" horiz-adv-x="944" d="M72 1079l41 172l41 232l309 -8l-76 -299l-123 -244zM481 1079l41 172l41 232l309 -8l-75 -299l-123 -244z" />
<glyph unicode="&#x201e;" horiz-adv-x="944" d="M72 -88l41 172l41 231l309 -8l-76 -299l-123 -244zM481 -88l41 172l41 231l309 -8l-75 -299l-123 -244z" />
<glyph unicode="&#x2022;" horiz-adv-x="1038" d="M143 524q0 100 35 197.5t88 146.5q123 115 338 115q66 0 132.5 -38t101.5 -93q57 -92 57 -199q0 -199 -107 -329q-45 -53 -137 -97.5t-180 -48.5h-4q-63 0 -134 41t-102 92q-88 143 -88 213z" />
<glyph unicode="&#x2026;" horiz-adv-x="1488" d="M102 115v164l152 28h172l18 -299l-153 -45l-160 8zM573 115v164l152 28h172l18 -299l-153 -45l-160 8zM1044 115v164l152 28h172l18 -299l-153 -45l-160 8z" />
<glyph unicode="&#x2039;" horiz-adv-x="942" d="M102 594l545 432l174 -192l-395 -320l414 -309l-197 -180l-532 389z" />
<glyph unicode="&#x203a;" horiz-adv-x="942" d="M102 205l197 -180l530 389l11 180l-545 432l-174 -192l395 -320z" />
<glyph unicode="&#x2122;" horiz-adv-x="1558" d="M72 1300l32 191l555 2l23 -193q-62 2 -199 9v-191q0 -41 2 -303q-51 -8 -71 -8q-39 0 -138 6v88q4 96 5 201q0 88 -2 205zM686 831q33 406 84 656l186 14q82 -184 129 -313q49 129 132 313l188 -16q39 -205 55 -357q4 -37 27 -297l-203 -43q-12 162 -24 299 q-47 -125 -95 -278l-157 4q-33 111 -90 262q-18 -150 -29 -287z" />
<glyph unicode="&#xe000;" horiz-adv-x="1160" d="M0 1160h1160v-1160h-1160v1160z" />
<glyph unicode="&#xfb01;" horiz-adv-x="1642" d="M76 811l8 270h160q20 168 61 226q33 47 131 77q176 53 359 54q76 0 196 -19l-104 -241h-123q-94 -2 -170 -23q-20 -6 -21 -74h283l-27 -276l-270 2v-102q0 -285 27 -717l-373 -8q18 106 18 348v94l-2 387zM1104 1341v127l170 29h192l23 -246l-172 -45l-178 8zM1116 205 v57q4 119 4 232q0 29 -2 188.5t-2 331.5v88q57 -6 109 -6q139 0 241 41v-281q-3 -120 -2 -186v-52l9 -415q2 -102 6 -211q-66 14 -121 14q-66 0 -240 -41z" />
<glyph unicode="&#xfb02;" horiz-adv-x="1615" d="M76 811l8 270h160q20 168 61 226q33 47 131 77q176 53 359 54q76 0 196 -19l-104 -241h-123q-94 -2 -170 -23q-20 -6 -21 -74h283l-27 -276l-270 2v-102q0 -285 27 -717l-373 -8q18 106 18 348v94l-2 387zM1104 1241v143q145 53 354 54l4 -113q-4 -98 -4 -362 q0 -176 2 -527v-94q0 -123 -2 -354q-125 14 -166 14h-14q-41 -8 -111 -8q-27 0 -57 2q-2 51 -2 80v22l2 555q0 447 -6 588z" />
<glyph unicode="&#xfb03;" horiz-adv-x="2592" d="M76 811l8 270h160q20 168 61 226q33 47 131 77q176 53 359 54q76 0 196 -19l-104 -241h-123q-94 -2 -170 -23q-20 -6 -21 -74h283l-27 -276l-270 2v-102q0 -285 27 -717l-373 -8q18 106 18 348v94l-2 387zM1026 811l8 270h160q20 168 61 226q33 47 131 77q176 53 359 54 q76 0 197 -19l-105 -241h-123q-94 -2 -170 -23q-20 -6 -20 -74h282l-26 -276l-271 2v-102q0 -285 27 -717l-373 -8q18 106 19 348v94l-2 387zM2054 1341v127l170 29h193l22 -246l-172 -45l-178 8zM2066 205v57q4 119 5 232q0 29 -2.5 188.5t-2.5 331.5v88q57 -6 109 -6 q139 0 242 41v-281q-3 -120 -3 -186q0 -33 1 -52l8 -415q2 -102 6 -211q-66 14 -121 14q-66 0 -240 -41z" />
<glyph unicode="&#xfb04;" horiz-adv-x="2566" d="M76 811l8 270h160q20 168 61 226q33 47 131 77q176 53 359 54q76 0 196 -19l-104 -241h-123q-94 -2 -170 -23q-20 -6 -21 -74h283l-27 -276l-270 2v-102q0 -285 27 -717l-373 -8q18 106 18 348v94l-2 387zM1026 811l8 270h160q20 168 61 226q33 47 131 77q176 53 359 54 q76 0 197 -19l-105 -241h-123q-94 -2 -170 -23q-20 -6 -20 -74h282l-26 -276l-271 2v-102q0 -285 27 -717l-373 -8q18 106 19 348v94l-2 387zM2054 1241v143q145 53 354 54l5 -113q-4 -98 -5 -362q0 -176 2 -527v-94q0 -123 -2 -354q-125 14 -165 14h-15q-41 -8 -110 -8 q-27 0 -58 2q-2 51 -2 80v22l2 555q0 447 -6 588z" />
</font>
</defs>
</svg>
